<svg version="1.1" id="Layer_1" xmlns="http://www.w3.org/2000/svg" xmlns:xlink="http://www.w3.org/1999/xlink" x="0px" y="0px"
	 width="100%" viewBox="0 0 1056 773" enable-background="new 0 0 1056 773" xml:space="preserve">
<path fill="#000000" opacity="1.000000" stroke="none" 
	d="
M1057.000000,258.000000 
	C1057.000000,430.333313 1057.000000,602.166626 1057.000000,774.000000 
	C705.000061,774.000000 353.000061,774.000000 1.000070,774.000000 
	C1.000047,516.333374 1.000047,258.666748 1.000023,1.000105 
	C352.999908,1.000070 704.999817,1.000070 1056.999878,1.000035 
	C1057.000000,86.500000 1057.000000,172.000000 1057.000000,258.000000 
M735.036560,481.029419 
	C725.659546,481.099426 716.282471,481.169464 705.988831,481.104126 
	C677.980469,481.115845 649.972046,481.127533 621.037964,481.015900 
	C608.173218,481.010864 595.308350,480.975037 582.444031,481.042999 
	C580.976990,481.050751 579.513000,481.640167 577.104614,481.982269 
	C563.740417,481.985352 550.376221,481.988464 537.005127,481.055908 
	C536.985657,463.385193 536.966187,445.714508 536.974426,427.119476 
	C536.834106,423.803101 536.916504,420.459442 536.514526,417.175079 
	C534.868042,403.721985 528.672485,392.227478 520.303650,381.925690 
	C513.558472,373.622528 505.186798,366.834747 494.209839,365.869446 
	C474.456482,364.132355 459.196625,377.183868 451.868774,393.677551 
	C444.006989,411.373077 443.001404,430.210144 441.157715,449.432892 
	C441.141449,460.265594 441.125153,471.098297 440.158569,481.968628 
	C411.345642,481.979370 382.532349,481.918762 353.720276,482.080078 
	C349.538757,482.103485 347.808685,481.192657 347.846466,476.584137 
	C347.885376,471.836884 346.639465,467.086975 346.072510,462.324371 
	C345.601776,458.369843 343.836334,456.498535 339.539093,456.933594 
	C333.614410,457.533447 327.644714,457.730469 321.689178,457.976013 
	C304.508759,458.684479 287.324554,459.303284 270.146027,460.052917 
	C268.751099,460.113800 267.298584,460.729370 266.025391,461.383942 
	C260.215332,464.371185 258.229523,470.272675 255.739075,475.627472 
	C253.629089,480.164246 250.763779,482.039795 245.866623,480.463684 
	C244.781952,480.114594 243.576279,480.055939 242.421707,480.022583 
	C229.990265,479.663239 217.558670,479.300903 205.125397,479.015717 
	C199.668060,478.890503 194.183517,479.253998 188.751511,478.852264 
	C172.462250,477.647491 156.102539,476.814362 139.954025,474.534851 
	C131.973969,473.408447 123.330582,470.898743 116.954567,466.292114 
	C111.187775,462.125641 105.630081,458.533112 98.893280,456.856476 
	C91.370033,454.984100 83.760033,453.412323 76.124512,452.069580 
	C73.962662,451.689392 70.998802,451.000671 70.099945,454.690369 
	C67.732300,464.409363 74.358368,480.772583 83.235275,485.435120 
	C87.283508,487.561401 92.128662,488.122314 96.337715,490.006683 
	C99.380531,491.368927 102.895630,493.156036 104.565331,495.789978 
	C107.798111,500.889679 109.878136,506.720123 112.805176,513.045776 
	C106.842796,513.473083 101.747841,513.838135 95.772888,514.186707 
	C81.157791,514.156982 66.542686,514.127197 51.123955,514.426514 
	C51.082912,520.253662 50.931179,526.083008 51.043522,531.907227 
	C51.107975,535.248779 51.600971,538.582092 52.849888,541.961609 
	C54.349373,541.974060 55.848858,541.997498 57.348343,541.997559 
	C383.100922,541.999146 708.853516,541.999207 1034.606079,541.995361 
	C1036.438354,541.995300 1038.270752,541.938232 1040.820923,541.457336 
	C1040.878662,534.310913 1041.007935,527.163818 1040.948120,520.018372 
	C1040.931641,518.037842 1040.353149,516.061951 1039.092773,514.026245 
	C999.001587,514.009521 958.910461,513.992737 918.669495,513.943970 
	C918.669495,513.943970 918.532471,514.012573 918.332092,513.516357 
	C918.327698,513.338013 918.323303,513.159668 918.748718,512.510559 
	C922.896057,505.458435 929.317566,502.859406 937.195312,502.984528 
	C942.190613,503.063904 947.204773,503.260529 952.181641,502.947144 
	C964.542297,502.168884 976.951294,501.634949 989.220581,500.063751 
	C1004.211914,498.143921 1014.390747,482.347992 1015.933777,468.953156 
	C1017.067932,459.107208 1017.428650,449.166290 1017.928040,439.257294 
	C1018.050415,436.829102 1017.367065,434.360291 1017.823975,431.527557 
	C1017.901672,397.167297 1017.986450,362.807068 1018.013916,328.446777 
	C1018.014587,327.638580 1017.371887,326.829865 1017.012756,325.081543 
	C1016.677429,309.294891 1015.822632,293.497223 1016.156738,277.724762 
	C1016.474304,262.731598 1009.149231,253.303894 996.494507,247.194031 
	C988.287842,243.231781 979.848328,239.732101 971.417114,236.258240 
	C945.972046,225.774185 920.484558,215.392807 895.004944,204.992813 
	C871.829407,195.533295 848.553162,186.312088 825.510254,176.540344 
	C817.757629,173.252731 808.890320,170.126358 803.548218,164.205399 
	C795.707703,155.515228 786.029175,150.564102 776.222900,145.744202 
	C755.227661,135.424866 733.780701,126.024658 712.520996,116.243225 
	C696.090576,108.683678 679.704041,101.026947 663.225952,93.572815 
	C633.002563,79.900795 602.532715,66.754097 572.566101,52.543819 
	C560.442444,46.794750 548.557251,42.303223 534.550110,43.235954 
	C520.710083,43.173805 506.870026,43.111660 492.270996,42.973747 
	C474.153442,35.621094 456.296478,27.510944 437.834473,21.159538 
	C423.504059,16.229517 408.592163,12.190132 393.613678,10.194530 
	C381.477081,8.577551 368.806732,10.033935 356.463898,11.139900 
	C341.989594,12.436854 327.609589,14.800532 313.196167,16.757084 
	C303.194275,18.114799 293.210815,19.608309 283.208862,20.965923 
	C268.965637,22.899235 254.708344,24.728998 240.466400,26.671419 
	C232.924332,27.700058 225.411911,28.946648 217.868622,29.965384 
	C203.944946,31.845802 189.998108,33.556435 176.080215,35.477665 
	C163.467285,37.218761 150.830811,38.867657 138.297989,41.084511 
	C129.209763,42.692074 119.850021,44.095348 111.360466,47.472729 
	C94.915588,54.014954 87.084679,68.297066 81.970856,84.312332 
	C81.086510,87.081863 80.563133,89.966660 79.873024,92.798210 
	C80.373459,92.951378 80.873894,93.104546 81.374329,93.257713 
	C83.478485,89.723862 85.887177,86.333298 87.629936,82.629402 
	C92.950218,71.322144 101.476997,63.812828 113.703163,61.404106 
	C129.641876,58.263962 145.672516,55.508465 161.748047,53.167282 
	C178.806702,50.682930 195.974594,48.958015 213.075882,46.754814 
	C233.458099,44.128929 253.811859,41.282200 274.193756,38.653767 
	C290.139557,36.597404 306.114319,34.766914 322.067322,32.764973 
	C339.496246,30.577820 356.915863,28.316589 374.337219,26.069561 
	C378.177002,25.574303 379.298706,27.157309 378.857330,30.939959 
	C377.727966,40.618618 376.911163,50.333740 375.195862,60.425392 
	C375.108307,69.008896 374.998077,77.592346 374.979889,86.176003 
	C374.978577,86.805046 375.642853,87.435501 376.504608,88.185921 
	C377.010284,87.178627 377.641602,86.214256 378.002502,85.157539 
	C382.513275,71.949974 388.465820,59.606956 399.791962,50.790466 
	C408.721802,43.839298 418.525665,39.030041 430.207764,42.672829 
	C441.780884,46.281643 453.373535,49.955582 464.634125,54.417336 
	C518.405212,75.722916 572.039124,97.374573 625.775391,118.768387 
	C666.649048,135.041245 707.614075,151.084381 748.517395,167.282913 
	C772.609802,176.823990 796.657410,186.478149 820.731689,196.064880 
	C855.109924,209.754791 889.553894,223.282074 923.853210,237.166779 
	C944.029053,245.334152 964.156982,253.669876 983.949829,262.710632 
	C992.760254,266.735016 999.982605,273.116089 998.035400,284.709534 
	C997.846130,285.836212 998.086975,287.035126 998.090393,289.108582 
	C998.041626,298.226776 997.944519,307.345245 997.991760,316.462952 
	C997.999573,317.978058 998.636841,319.489929 998.993103,321.940125 
	C998.995422,366.904114 999.026978,411.868103 998.983459,456.832031 
	C998.969055,471.666382 990.489807,481.149048 975.968018,481.738861 
	C962.667847,482.279022 949.332092,481.942047 936.005066,481.055908 
	C935.972229,472.409302 935.939331,463.762695 935.954834,454.206146 
	C935.653748,450.913483 935.259949,447.626190 935.067627,444.327179 
	C934.252625,430.345459 928.527710,418.675354 917.984314,409.623871 
	C911.084106,403.700104 903.050537,400.403046 893.623962,402.635162 
	C879.502502,405.978973 872.890259,416.350189 868.969727,429.141052 
	C864.360962,444.177399 864.416931,459.846436 863.184509,475.308197 
	C862.803955,480.082764 861.060974,481.095520 856.779541,481.070129 
	C836.148010,480.947601 815.515015,481.064056 793.969910,481.032043 
	C784.612549,481.091888 775.255249,481.151703 764.981140,481.085114 
	C755.309326,481.097076 745.637573,481.109070 735.036560,481.029419 
M979.744507,337.542999 
	C979.808350,328.715088 979.872192,319.887177 979.961182,310.227112 
	C979.080444,303.425537 978.491821,296.075012 972.270569,292.020142 
	C964.698364,287.084686 956.714905,282.484283 948.356384,279.107880 
	C925.293762,269.791901 901.968262,261.122314 878.688477,252.351532 
	C872.889038,250.166534 866.869507,248.565567 860.001038,246.396072 
	C860.001038,249.565140 859.950867,251.521057 860.008728,253.473785 
	C860.662170,275.543793 861.332336,297.613312 861.997375,319.682983 
	C862.002380,319.849365 861.993408,320.016174 861.996765,320.182678 
	C862.233398,331.939148 862.231812,331.944244 873.565979,335.457886 
	C875.308350,335.998016 877.046448,336.603394 878.831055,336.948090 
	C904.693787,341.943970 930.546082,346.997406 956.444336,351.803070 
	C963.546997,353.121033 970.792480,353.668976 979.015625,354.701202 
	C979.015625,348.364441 979.015625,343.184967 979.744507,337.542999 
M710.176697,192.201767 
	C710.091858,200.312698 709.975586,208.423615 709.969910,216.534592 
	C709.969299,217.363327 710.632019,218.192520 710.994568,219.956070 
	C711.321777,228.579651 711.638367,237.203644 711.978455,245.826721 
	C712.645447,262.736694 713.435791,279.642731 713.955750,296.557159 
	C714.236206,305.679474 714.414673,306.225403 723.291321,308.018524 
	C746.346008,312.675537 769.369812,317.501709 792.486084,321.832336 
	C808.777100,324.884338 825.199707,327.233734 841.562866,329.900909 
	C844.609253,330.397461 846.862976,329.934998 847.004272,326.109863 
	C847.261536,319.142944 847.735901,312.183838 847.973572,305.216431 
	C848.132629,300.555481 847.984131,295.884949 848.068848,291.220428 
	C848.352661,275.589783 848.750916,259.960480 848.867065,244.328918 
	C848.877380,242.936005 847.475464,240.832581 846.191650,240.255493 
	C841.511902,238.151779 836.591187,236.589066 831.783875,234.762955 
	C809.140503,226.161331 786.508423,217.530045 763.864807,208.929108 
	C748.046326,202.920654 732.240662,196.875961 716.349548,191.065659 
	C714.864746,190.522766 712.805115,191.552094 710.176697,192.201767 
M380.919189,422.025848 
	C389.063354,421.999573 397.229431,422.336853 405.345795,421.848663 
	C414.115295,421.321106 422.283081,418.304932 424.543152,408.840668 
	C427.899261,394.786499 430.695618,380.540833 432.683502,366.231293 
	C435.670013,344.733093 438.684570,323.271759 447.255310,303.155975 
	C452.589508,290.636444 460.284149,280.021759 474.134613,275.425873 
	C489.810455,270.224243 505.746796,270.139832 521.836548,272.502441 
	C524.434326,272.883881 526.632568,273.276794 526.888672,269.806793 
	C527.948853,255.440475 529.160095,241.081543 529.944885,226.699677 
	C530.831177,210.457901 531.443115,194.198227 531.946167,177.939270 
	C532.444763,161.821426 532.617126,145.693710 533.021851,129.572571 
	C533.160645,124.043930 530.927490,120.831993 525.497131,118.860847 
	C508.995178,112.870895 492.638336,106.474503 476.287842,100.075798 
	C461.124451,94.141655 445.756195,90.797218 429.222382,92.640991 
	C412.917175,94.459251 402.082550,103.544502 394.257141,116.787598 
	C389.195160,125.354111 388.662415,135.339523 387.871368,145.123138 
	C386.377472,163.598618 384.380096,182.036240 383.086456,200.524185 
	C382.010040,215.906860 381.482208,231.334137 381.003357,246.750732 
	C380.482300,263.526520 380.231689,280.311798 379.992004,297.094788 
	C379.849274,307.087463 379.954559,317.083710 379.157898,327.432587 
	C379.106354,358.299469 379.048889,389.166321 379.044220,420.033203 
	C379.044128,420.672211 379.655945,421.311279 380.919189,422.025848 
M336.159576,112.980865 
	C331.933075,114.649429 327.429718,115.858810 323.592041,118.172325 
	C321.546997,119.405128 320.652863,122.547119 319.239288,124.827393 
	C321.658020,125.592850 324.036713,126.809608 326.503906,127.028259 
	C331.392059,127.461433 333.330292,129.443405 333.088623,134.616928 
	C332.444946,148.395767 332.810760,162.234421 331.816711,175.979965 
	C331.104370,185.829742 329.129517,195.625061 327.165558,205.332932 
	C326.078064,210.708588 320.886047,214.288727 316.365753,213.944168 
	C311.327850,213.560150 306.875763,209.571350 305.922333,204.248108 
	C305.369415,201.161118 305.107147,198.003571 304.955933,194.866119 
	C303.941345,173.813507 302.725525,152.765182 302.137024,131.699783 
	C301.856750,121.667633 305.496704,112.840370 315.080200,108.162346 
	C321.124512,105.211929 327.600464,102.910408 334.118958,101.238670 
	C339.690308,99.809845 345.590393,99.619423 351.359009,99.013977 
	C359.007935,98.211174 361.374420,94.300186 357.720947,87.497696 
	C353.936890,80.452126 348.012054,76.164902 339.751465,76.035164 
	C336.801727,75.988831 333.842590,76.646507 330.885315,76.960152 
	C318.060608,78.320328 305.205414,79.441818 292.416626,81.081329 
	C273.556030,83.499245 254.763077,86.444344 235.903458,88.870659 
	C213.592712,91.740967 191.201218,94.004570 168.919754,97.075546 
	C147.462494,100.032921 126.022743,103.264557 104.733795,107.227142 
	C95.550575,108.936447 86.732384,112.688950 77.815079,115.710152 
	C73.346359,117.224167 69.168274,119.899033 64.612373,120.792198 
	C53.756504,122.920479 42.618507,123.703827 31.848061,126.147926 
	C20.457384,128.732773 10.622223,139.018509 10.983082,153.087158 
	C11.315378,166.042252 11.603095,178.998734 12.000849,191.951813 
	C12.235145,199.581833 12.332685,207.237610 13.088490,214.822342 
	C13.577751,219.732224 14.853403,224.624588 16.312590,229.359650 
	C17.735807,233.977982 21.791302,235.719025 28.259274,235.032852 
	C32.681419,234.563721 35.700726,232.466934 36.279964,227.647034 
	C37.107639,220.759888 38.381649,213.912750 38.910397,207.006058 
	C40.124081,191.152451 40.796951,175.256012 42.120899,159.413010 
	C42.629597,153.325684 39.870312,150.495163 34.627907,148.985016 
	C33.510929,148.663254 32.259750,148.482208 31.351934,147.838989 
	C30.120892,146.966736 28.394524,145.775665 28.296381,144.602859 
	C28.194088,143.380478 29.481075,141.583099 30.664831,140.783936 
	C40.713120,134.000305 52.146595,133.449097 63.693401,134.170547 
	C64.862137,134.243561 66.663940,137.028046 66.764969,138.642288 
	C66.968239,141.890015 66.155663,145.194138 65.842209,148.482620 
	C64.539124,162.153854 63.232353,175.824890 61.993591,189.502029 
	C61.201935,198.242645 60.564327,206.997147 59.791157,215.739548 
	C58.550896,229.763443 57.162216,243.774841 56.014252,257.806091 
	C55.163315,268.206848 54.530869,278.626923 53.915073,289.045135 
	C52.887924,306.422699 51.685570,323.796753 51.108337,341.190613 
	C50.876331,348.181580 53.099743,355.146973 59.564949,358.835632 
	C67.876038,363.577423 76.386948,368.729706 85.490738,371.129028 
	C96.882294,374.131256 108.952744,374.610657 120.754150,375.970795 
	C124.112503,376.357849 127.554337,376.020660 131.380859,376.782990 
	C148.228882,376.837524 165.076904,376.892059 182.850601,376.985687 
	C193.774841,376.617554 204.762344,376.861359 215.608765,375.740265 
	C232.575699,373.986572 249.492462,371.597778 266.347595,368.950165 
	C287.193024,365.675812 307.932587,361.817383 327.720673,354.050690 
	C339.615265,349.382141 346.860565,340.831573 348.556396,328.291687 
	C350.460388,314.212402 351.951782,300.049927 352.895416,285.875244 
	C354.008606,269.154297 354.416077,252.384018 354.995789,235.630493 
	C355.736664,214.219177 356.405304,192.804886 356.988708,171.388702 
	C357.427795,155.272247 357.683624,139.150803 358.838318,122.709930 
	C358.838318,119.163795 358.838318,115.617653 358.838318,112.005447 
	C354.094391,112.005447 349.954651,111.884819 345.825928,112.046074 
	C342.865784,112.161682 339.920349,112.654427 336.159576,112.980865 
M61.247734,604.514099 
	C61.168831,605.170715 61.021446,605.827209 61.020809,606.483887 
	C60.983883,644.674866 60.951111,682.865784 60.977436,721.056763 
	C60.978123,722.052795 61.636620,723.048462 61.991825,724.880798 
	C63.853241,731.005859 64.664391,737.737305 67.781906,743.137207 
	C75.700623,756.853333 87.850945,764.853088 104.307091,766.815308 
	C104.963814,766.890503 105.620529,767.031555 106.277252,767.031555 
	C271.748688,767.027405 437.220154,767.009399 602.691589,767.001038 
	C729.336548,766.994568 855.981506,767.003235 982.626465,766.958801 
	C984.091370,766.958313 985.555969,766.339417 987.874939,766.013733 
	C1005.158386,764.652954 1017.143005,755.253601 1024.868286,740.431519 
	C1027.382568,735.607422 1027.692993,729.634583 1029.695923,723.628418 
	C1029.816772,722.980713 1030.043457,722.333008 1030.043213,721.685364 
	C1030.030151,681.457153 1029.998535,641.229004 1029.955078,600.196960 
	C1029.638550,598.402893 1029.434814,596.580017 1028.986694,594.819458 
	C1026.467651,584.924133 1021.625854,576.148315 1013.942688,569.576904 
	C1004.160583,561.210266 992.389709,557.930115 979.420166,557.933777 
	C689.206909,558.015564 398.993652,558.042175 108.780495,557.915710 
	C83.651718,557.904724 61.034355,579.370483 61.247734,604.514099 
M632.190247,292.280518 
	C646.168152,294.874542 660.144714,297.475403 674.124451,300.059448 
	C680.363098,301.212585 686.608032,302.331818 693.001465,303.493958 
	C693.781433,300.177490 694.747681,297.636658 694.926025,295.041656 
	C695.733704,283.291626 696.638184,271.533844 696.916748,259.764862 
	C697.479736,235.978271 697.601807,212.181488 698.063965,188.391983 
	C698.127930,185.100906 696.668518,183.487640 693.932556,182.450653 
	C672.063416,174.161545 650.188965,165.886444 628.327393,157.577347 
	C605.841980,149.031158 583.373047,140.441559 560.887878,131.894669 
	C556.288025,130.146210 551.648254,128.502853 545.999634,126.435005 
	C545.999634,132.248245 545.865356,137.092209 546.023438,141.926605 
	C546.625671,160.346863 547.358093,178.762802 547.974121,197.182648 
	C548.684631,218.423203 549.287842,239.667358 550.020508,260.907104 
	C550.185852,265.700958 550.509583,270.509216 551.183716,275.250671 
	C551.337158,276.330414 553.121277,277.738251 554.369934,278.011230 
	C562.276855,279.739838 570.227600,281.284393 578.195068,282.716431 
	C595.937195,285.905212 613.697571,288.992126 632.190247,292.280518 
M689.363708,350.593811 
	C716.343018,353.754700 743.322510,356.913422 770.301514,360.077179 
	C800.224792,363.586182 830.139343,367.170868 860.072815,370.590515 
	C887.667664,373.742981 915.280884,376.734344 942.892517,379.737152 
	C944.419189,379.903198 946.005188,379.523865 947.563538,379.398376 
	C947.540039,378.951324 947.516479,378.504242 947.492981,378.057190 
	C942.005005,377.032959 936.533264,375.910431 931.025940,375.003693 
	C916.865417,372.672333 902.703369,370.342377 888.515137,368.188843 
	C874.160767,366.010101 859.774414,364.043121 845.401794,361.984680 
	C833.311462,360.253082 821.212769,358.576996 809.132446,356.777985 
	C796.570068,354.907135 784.033020,352.866516 771.470642,350.995667 
	C758.734497,349.098938 745.974243,347.364258 733.237000,345.474823 
	C721.317749,343.706726 709.418884,341.801056 697.503479,340.006287 
	C682.656921,337.770020 667.797058,335.621429 652.953064,333.368591 
	C636.965881,330.942200 621.004578,328.342163 605.005493,325.997955 
	C590.471924,323.868408 575.893372,322.046539 561.353088,319.960968 
	C553.027344,318.766724 544.749817,317.239197 536.429932,316.000397 
	C523.223450,314.034027 509.988525,312.256622 496.786804,310.259521 
	C487.455017,308.847931 477.841644,307.350800 470.630005,315.075592 
	C465.495331,320.575592 461.118988,326.980743 457.415710,333.552002 
	C454.863831,338.080231 454.042053,343.583435 452.447021,348.650879 
	C452.992950,348.936432 453.538849,349.221985 454.084747,349.507538 
	C457.683685,345.926239 461.166412,342.218048 464.907135,338.791534 
	C471.500244,332.752258 478.578064,327.267242 488.189209,328.069946 
	C505.989014,329.556610 523.790344,331.126129 541.535156,333.151154 
	C590.591919,338.749542 639.619873,344.600525 689.363708,350.593811 
M277.797241,448.998779 
	C289.563995,448.671051 301.338715,448.511414 313.094757,447.956879 
	C321.012421,447.583374 328.918427,446.787109 336.802734,445.931976 
	C344.611206,445.085083 348.112427,441.735596 348.655640,433.845062 
	C349.175140,426.299347 349.214142,418.688599 348.924377,411.127136 
	C348.550232,401.364075 347.824493,391.603912 346.894989,381.876404 
	C346.274048,375.378204 344.354950,373.753693 337.854523,374.076660 
	C334.298004,374.253418 330.763214,375.289642 327.264709,376.130157 
	C317.770538,378.411163 308.221100,380.520264 298.854187,383.248871 
	C293.899872,384.692047 289.468262,387.372528 287.484741,392.843536 
	C281.496399,409.360443 275.313751,425.807159 269.380646,442.343597 
	C268.760376,444.072327 269.297241,446.216217 269.297241,448.448425 
	C271.978546,448.642731 274.434113,448.820679 277.797241,448.998779 
M99.775108,445.098572 
	C106.346031,445.679779 106.821327,445.234192 105.279602,438.405823 
	C102.875748,427.759033 100.577347,417.071320 97.617958,406.574677 
	C96.252853,401.732849 94.563560,395.994781 91.044167,392.943390 
	C82.406525,385.454315 71.763542,381.566040 60.139549,381.017273 
	C56.562054,380.848358 54.796021,382.750671 55.044865,386.185486 
	C56.070427,400.341125 57.337624,414.480103 58.266609,428.641571 
	C58.696686,435.197632 62.639122,437.755981 68.353081,438.895660 
	C78.580872,440.935638 88.796852,443.034851 99.775108,445.098572 
M324.724396,58.379631 
	C323.082092,58.255791 321.436127,57.989132 319.798065,58.031120 
	C308.515839,58.320343 297.225586,58.487900 285.957306,59.069668 
	C277.876038,59.486900 269.798157,60.271996 261.766052,61.272549 
	C247.661377,63.029568 233.593842,65.083961 219.509079,67.001663 
	C204.280197,69.075165 188.955048,70.612183 173.844803,73.340759 
	C157.239166,76.339386 140.799515,80.295380 124.352036,84.112198 
	C118.087234,85.566025 112.001587,87.791862 105.834290,89.665855 
	C105.963684,90.180939 106.093079,90.696022 106.222466,91.211105 
	C109.501724,90.967979 112.809540,90.921288 116.055519,90.449341 
	C134.927032,87.705505 153.780899,84.840652 172.646713,82.057259 
	C194.464737,78.838310 216.291275,75.677040 238.109772,72.461380 
	C257.140656,69.656578 276.175415,66.875542 295.188934,63.956764 
	C304.994415,62.451519 314.757385,60.669308 324.724396,58.379631 
z"/>
<path fill="#03203A" opacity="1.000000" stroke="none" 
	d="
M1029.011475,724.187134 
	C1027.692993,729.634583 1027.382568,735.607422 1024.868286,740.431519 
	C1017.143005,755.253601 1005.158386,764.652954 986.986084,765.966919 
	C983.931946,765.946228 981.766785,765.995300 979.601562,765.995300 
	C690.400818,765.998718 401.200073,765.998535 111.999313,765.999390 
	C109.335411,765.999390 106.671516,766.010986 104.007614,766.017212 
	C87.850945,764.853088 75.700623,756.853333 67.781906,743.137207 
	C64.664391,737.737305 63.853241,731.005859 62.037094,723.992310 
	C62.043201,683.420898 62.004044,643.737915 61.964886,604.054932 
	C61.034355,579.370483 83.651718,557.904724 108.780495,557.915710 
	C398.993652,558.042175 689.206909,558.015564 979.420166,557.933777 
	C992.389709,557.930115 1004.160583,561.210266 1013.942688,569.576904 
	C1021.625854,576.148315 1026.467651,584.924133 1028.986694,594.819458 
	C1029.434814,596.580017 1029.638550,598.402893 1029.674194,600.902283 
	C1029.261963,602.584717 1029.016235,603.561829 1029.015869,604.539001 
	C1029.000610,644.421692 1029.007446,684.304443 1029.011475,724.187134 
M483.041412,676.043030 
	C494.248077,676.030884 505.455017,676.055908 516.661072,675.967224 
	C518.380981,675.953613 520.096741,675.415588 522.554199,674.935425 
	C526.271362,672.617249 526.449280,669.050964 525.546631,665.406311 
	C524.570251,661.463989 521.565491,660.012207 517.678467,660.005798 
	C505.753998,659.986206 493.829590,659.932434 481.966370,658.973145 
	C482.003357,649.036987 482.040375,639.100830 482.996033,629.028015 
	C498.940643,629.020569 514.885376,629.039917 530.829712,628.970886 
	C532.761047,628.962524 534.690247,628.477783 537.282593,627.799561 
	C541.942505,621.995056 541.045532,616.422119 534.245117,612.413330 
	C533.430847,612.276794 532.616638,612.021912 531.802246,612.020996 
	C511.143066,611.997803 490.483826,611.984924 469.824799,612.040161 
	C468.568512,612.043518 467.313812,612.625793 465.363831,613.082092 
	C463.869568,614.451660 462.375305,615.821167 460.355316,617.799133 
	C460.237823,618.613342 460.018066,619.427490 460.017609,620.241760 
	C459.999176,651.783142 459.991516,683.324524 460.033600,714.865845 
	C460.035278,716.126770 460.534119,717.387085 461.008636,719.375183 
	C462.072510,720.291016 463.136383,721.206848 464.756287,722.721252 
	C488.057434,722.798035 511.358582,722.880188 534.659790,722.923035 
	C535.275452,722.924194 535.891968,722.499512 537.187012,721.863037 
	C540.533936,718.905518 540.599487,715.381287 539.126648,711.480286 
	C537.590088,707.410522 534.245178,707.011108 530.626221,707.003601 
	C514.385864,706.969849 498.145508,706.929749 481.966370,705.973145 
	C482.019775,696.035034 482.073181,686.096985 483.041412,676.043030 
M922.981384,676.048279 
	C932.774902,676.034363 942.569153,676.082214 952.361511,675.970398 
	C955.454590,675.935059 958.542786,675.472778 962.392578,674.945007 
	C966.646423,671.817688 965.656738,667.144348 964.222473,663.686157 
	C963.402893,661.710144 959.121765,660.267151 956.341125,660.164917 
	C944.883301,659.743652 933.403198,659.927429 921.975281,658.972412 
	C921.996277,649.041504 922.017273,639.110596 922.960022,629.030151 
	C938.670654,629.022034 954.381409,629.039124 970.091797,628.975769 
	C972.204895,628.967224 974.316406,628.553223 977.161438,627.876648 
	C981.033569,622.237488 979.502808,615.135620 973.295715,612.439087 
	C972.483337,612.294434 971.671143,612.024414 970.858582,612.023438 
	C950.203003,611.998230 929.547363,611.985474 908.891968,612.038025 
	C907.632324,612.041260 906.374207,612.600952 904.478088,613.209412 
	C903.251709,614.262512 902.025330,615.315613 900.349548,617.005554 
	C900.232361,617.822632 900.013245,618.639587 900.012756,619.456726 
	C899.994629,651.366272 899.986206,683.275879 900.034119,715.185364 
	C900.035950,716.412476 900.604797,717.638855 901.123108,719.578613 
	C901.913757,720.475342 902.704407,721.372131 904.139526,722.672180 
	C904.789001,722.779785 905.438416,722.980957 906.087952,722.981506 
	C928.281433,723.000488 950.474976,723.012512 972.668396,722.972107 
	C973.949951,722.969788 975.230652,722.518188 977.238098,721.836731 
	C977.612183,717.896729 978.879944,713.727539 977.954773,710.120850 
	C977.539490,708.501892 972.752930,707.194946 969.922363,707.138855 
	C953.929993,706.821777 937.929199,706.927246 921.975342,705.972412 
	C922.003601,696.041748 922.031860,686.111084 922.981384,676.048279 
M602.857727,629.009705 
	C607.291565,629.008362 611.728638,629.112061 616.158508,628.979065 
	C621.672852,628.813538 627.181213,628.452515 633.443420,627.924744 
	C638.053162,622.921692 636.943176,616.404602 630.245117,612.413330 
	C629.430786,612.276794 628.616577,612.021729 627.802124,612.020935 
	C603.809692,611.998474 579.817200,611.987061 555.824890,612.039978 
	C554.568726,612.042786 553.313843,612.625854 551.339355,613.097412 
	C546.108459,616.845337 545.585938,623.924255 550.802979,628.704163 
	C560.841675,628.771362 570.880432,628.838623 580.965576,629.853943 
	C580.978210,656.504395 581.220337,683.157532 580.916565,709.804382 
	C580.737122,725.546936 584.747009,723.021057 595.474487,722.777588 
	C597.368408,722.734619 599.207214,720.265930 601.735840,718.400269 
	C601.825500,716.586975 601.991516,714.773682 601.993225,712.960327 
	C602.019836,684.943237 602.025146,656.926208 602.033386,629.033264 
	C602.033386,629.033264 601.909180,629.035339 602.857727,629.009705 
M163.857773,629.009766 
	C168.291626,629.008423 172.728622,629.112061 177.158524,628.979004 
	C182.672775,628.813416 188.181168,628.452454 194.443283,627.924744 
	C199.053391,622.921753 197.943314,616.404297 191.245132,612.413330 
	C190.430786,612.276794 189.616562,612.021729 188.802109,612.020935 
	C164.809708,611.998474 140.817276,611.987061 116.824982,612.039978 
	C115.568802,612.042786 114.313904,612.625793 112.379707,613.081970 
	C108.033264,615.989136 107.385170,624.470276 111.802971,628.704163 
	C121.841667,628.771423 131.880356,628.838684 141.965515,629.854065 
	C141.978226,656.650940 142.219009,683.450378 141.915253,710.243713 
	C141.742233,725.506531 145.966858,723.009644 156.887421,722.766052 
	C158.631210,722.727173 160.322174,720.320862 162.754562,718.531189 
	C162.837982,716.713379 162.992523,714.895691 162.994171,713.077820 
	C163.019608,685.021606 163.025177,656.965332 163.033340,629.033264 
	C163.033340,629.033264 162.909164,629.035339 163.857773,629.009766 
M358.314850,616.869141 
	C358.209106,617.688843 358.011230,618.508484 358.010834,619.328247 
	C357.994415,651.448486 357.987579,683.568787 358.026245,715.688965 
	C358.027771,716.962158 358.484955,718.234863 359.144928,720.194702 
	C364.157593,724.806580 370.012451,723.531311 375.498688,721.870361 
	C377.101044,721.385376 378.834137,718.095947 378.847198,716.081177 
	C379.055054,683.980957 379.027130,651.878723 378.899475,619.777588 
	C378.892517,618.027466 377.999908,615.757568 376.723389,614.634888 
	C373.038055,611.393616 362.469360,612.581665 358.314850,616.869141 
M209.349426,617.005615 
	C209.232269,617.822693 209.013107,618.639648 209.012650,619.456787 
	C208.994461,651.366333 208.986099,683.275879 209.033997,715.185364 
	C209.035843,716.412537 209.604691,717.638916 210.127396,719.589478 
	C213.722107,725.301636 219.381134,722.643860 224.181168,722.779480 
	C227.950470,722.886108 230.043839,720.539734 230.033676,716.348083 
	C229.955597,684.114807 230.026108,651.881226 229.893631,619.648315 
	C229.886505,617.919312 228.917068,615.664612 227.621857,614.570618 
	C223.834030,611.371094 213.307663,612.652527 209.349426,617.005615 
M770.907776,617.346741 
	C766.872437,611.505249 756.061401,610.985107 750.330688,617.006653 
	C750.219421,617.823792 750.011292,618.640930 750.010864,619.458130 
	C749.993530,651.356384 749.984924,683.254578 750.032227,715.152771 
	C750.034058,716.384949 750.596130,717.616333 751.095276,719.580872 
	C754.291382,723.379883 766.696472,724.428894 770.020264,721.044006 
	C770.723145,720.328247 770.756470,718.954956 771.586609,717.245117 
	C771.723145,716.430786 771.978577,715.616455 771.979126,714.802063 
	C772.000610,683.810852 772.009705,652.819641 771.960388,621.828491 
	C771.958374,620.572205 771.375732,619.316833 770.907776,617.346741 
M652.511169,613.170166 
	C651.283997,614.209717 650.056885,615.249207 648.306519,616.889587 
	C648.203491,617.709351 648.010681,618.529053 648.010254,619.348877 
	C647.994385,651.448669 647.987793,683.548523 648.025513,715.648254 
	C648.027039,716.930542 648.471008,718.212280 649.113708,720.193909 
	C652.553894,724.420471 657.345886,722.921997 661.653442,722.943176 
	C666.938660,722.969116 668.990601,720.612061 669.016602,715.233887 
	C669.070374,704.120483 669.077820,693.006714 670.023132,681.979126 
	C678.313599,681.951050 686.604126,681.922974 695.215454,682.545532 
	C699.431335,692.287048 703.562439,702.066345 707.883301,711.761047 
	C714.127563,725.771301 710.484070,722.693481 726.103210,722.973572 
	C731.929688,723.078064 732.890320,721.180420 730.487427,715.951843 
	C725.568970,705.249756 720.779541,694.488281 715.877197,683.778687 
	C714.475220,680.715698 714.734497,678.593994 718.094971,676.889221 
	C736.523071,667.540588 739.342346,644.176941 729.665222,628.169067 
	C722.675720,616.607056 711.125244,613.936279 698.212036,612.395996 
	C683.786316,612.290649 669.360657,612.175659 654.934753,612.114075 
	C654.342041,612.111572 653.747192,612.611206 652.511169,613.170166 
M794.545166,613.145020 
	C793.319824,614.161926 792.094543,615.178833 790.230347,616.714722 
	C790.154907,617.204590 790.013550,617.694397 790.013367,618.184265 
	C789.999817,650.753662 789.988708,683.322998 790.028625,715.892334 
	C790.030212,717.151184 790.532227,718.409424 791.175232,720.317688 
	C791.925110,720.959961 792.674988,721.602295 794.064941,722.674988 
	C808.726501,722.622009 823.388000,722.569031 838.991638,722.285095 
	C841.771423,721.838196 844.588806,721.553162 847.324829,720.917908 
	C864.004333,717.045227 876.173523,707.937012 881.440063,691.040894 
	C885.508118,677.989624 886.070496,664.824829 883.109985,651.402283 
	C879.670593,635.808594 871.976746,623.488953 856.419495,618.148315 
	C848.261719,615.347900 839.406311,614.579834 830.231873,612.406677 
	C821.795288,612.270325 813.358643,612.041626 804.922058,612.044373 
	C801.676819,612.045471 798.431641,612.573730 794.545166,613.145020 
M427.429413,636.895264 
	C432.073486,631.300232 436.804413,625.773560 441.301331,620.062622 
	C442.444519,618.610840 442.843781,616.573303 443.584839,614.804871 
	C441.834564,614.204773 440.121613,613.297546 438.324951,613.079285 
	C435.862518,612.780151 433.301300,613.271057 430.845337,612.946899 
	C426.011688,612.308899 422.646515,614.251160 419.686371,617.920471 
	C408.009827,632.394226 396.143799,646.715088 384.457153,661.180786 
	C380.533813,666.036987 380.965088,670.684509 384.990326,675.484192 
	C397.415741,690.300415 409.730164,705.209778 422.190735,719.996155 
	C423.275909,721.283936 425.064087,722.631409 426.617889,722.750671 
	C431.418915,723.119324 436.282898,723.170654 441.087250,722.837463 
	C445.014771,722.565125 445.654938,720.772827 443.120483,717.703857 
	C436.148407,709.261597 429.068726,700.907898 422.012543,692.535278 
	C416.132843,685.558655 410.201660,678.625305 404.347046,671.627869 
	C402.706207,669.666748 401.365051,667.515991 403.488373,665.020630 
	C411.312897,655.825439 419.149628,646.640686 427.429413,636.895264 
z"/>
<path fill="#001A37" opacity="1.000000" stroke="none" 
	d="
M936.012024,481.991577 
	C949.332092,481.942047 962.667847,482.279022 975.968018,481.738861 
	C990.489807,481.149048 998.969055,471.666382 998.983459,456.832031 
	C999.026978,411.868103 998.995422,366.904114 999.016479,321.003235 
	C999.046814,315.625092 999.172974,311.180084 999.031921,306.743561 
	C998.835327,300.559204 998.439026,294.381226 998.128174,288.200500 
	C998.086975,287.035126 997.846130,285.836212 998.035400,284.709534 
	C999.982605,273.116089 992.760254,266.735016 983.949829,262.710632 
	C964.156982,253.669876 944.029053,245.334152 923.853210,237.166779 
	C889.553894,223.282074 855.109924,209.754791 820.731689,196.064880 
	C796.657410,186.478149 772.609802,176.823990 748.517395,167.282913 
	C707.614075,151.084381 666.649048,135.041245 625.775391,118.768387 
	C572.039124,97.374573 518.405212,75.722916 464.634125,54.417336 
	C453.373535,49.955582 441.780884,46.281643 430.207764,42.672829 
	C418.525665,39.030041 408.721802,43.839298 399.791962,50.790466 
	C388.465820,59.606956 382.513275,71.949974 378.002502,85.157539 
	C377.641602,86.214256 377.010284,87.178627 376.303955,87.654694 
	C376.058624,78.093735 376.013977,69.064011 375.969360,60.034283 
	C376.911163,50.333740 377.727966,40.618618 378.857330,30.939959 
	C379.298706,27.157309 378.177002,25.574303 374.337219,26.069561 
	C356.915863,28.316589 339.496246,30.577820 322.067322,32.764973 
	C306.114319,34.766914 290.139557,36.597404 274.193756,38.653767 
	C253.811859,41.282200 233.458099,44.128929 213.075882,46.754814 
	C195.974594,48.958015 178.806702,50.682930 161.748047,53.167282 
	C145.672516,55.508465 129.641876,58.263962 113.703163,61.404106 
	C101.476997,63.812828 92.950218,71.322144 87.629936,82.629402 
	C85.887177,86.333298 83.478485,89.723862 81.374329,93.257713 
	C80.873894,93.104546 80.373459,92.951378 79.873024,92.798210 
	C80.563133,89.966660 81.086510,87.081863 81.970856,84.312332 
	C87.084679,68.297066 94.915588,54.014954 111.360466,47.472729 
	C119.850021,44.095348 129.209763,42.692074 138.297989,41.084511 
	C150.830811,38.867657 163.467285,37.218761 176.080215,35.477665 
	C189.998108,33.556435 203.944946,31.845802 217.868622,29.965384 
	C225.411911,28.946648 232.924332,27.700058 240.466400,26.671419 
	C254.708344,24.728998 268.965637,22.899235 283.208862,20.965923 
	C293.210815,19.608309 303.194275,18.114799 313.196167,16.757084 
	C327.609589,14.800532 341.989594,12.436854 356.463898,11.139900 
	C368.806732,10.033935 381.477081,8.577551 393.613678,10.194530 
	C408.592163,12.190132 423.504059,16.229517 437.834473,21.159538 
	C456.296478,27.510944 474.153442,35.621094 492.923401,43.331123 
	C507.379791,43.785339 521.183777,43.882183 534.987793,43.979027 
	C548.557251,42.303223 560.442444,46.794750 572.566101,52.543819 
	C602.532715,66.754097 633.002563,79.900795 663.225952,93.572815 
	C679.704041,101.026947 696.090576,108.683678 712.520996,116.243225 
	C733.780701,126.024658 755.227661,135.424866 776.222900,145.744202 
	C786.029175,150.564102 795.707703,155.515228 803.548218,164.205399 
	C808.890320,170.126358 817.757629,173.252731 825.510254,176.540344 
	C848.553162,186.312088 871.829407,195.533295 895.004944,204.992813 
	C920.484558,215.392807 945.972046,225.774185 971.417114,236.258240 
	C979.848328,239.732101 988.287842,243.231781 996.494507,247.194031 
	C1009.149231,253.303894 1016.474304,262.731598 1016.156738,277.724762 
	C1015.822632,293.497223 1016.677429,309.294891 1016.979736,326.017944 
	C1016.982544,361.939606 1017.018311,396.924896 1017.054077,431.910156 
	C1017.367065,434.360291 1018.050415,436.829102 1017.928040,439.257294 
	C1017.428650,449.166290 1017.067932,459.107208 1015.933777,468.953156 
	C1014.390747,482.347992 1004.211914,498.143921 989.220581,500.063751 
	C976.951294,501.634949 964.542297,502.168884 952.181641,502.947144 
	C947.204773,503.260529 942.190613,503.063904 937.195312,502.984528 
	C929.317566,502.859406 922.896057,505.458435 918.191284,512.788696 
	C917.933411,513.382080 918.232971,513.697327 918.532471,514.012573 
	C918.532471,514.012573 918.669495,513.943970 919.068604,514.252258 
	C921.614075,514.706238 923.760376,514.975647 925.906982,514.979187 
	C963.886292,515.042175 1001.865662,515.072754 1039.908203,515.567871 
	C1040.015259,524.652893 1040.059082,533.280334 1040.103027,541.907837 
	C1038.270752,541.938232 1036.438354,541.995300 1034.606079,541.995361 
	C708.853516,541.999207 383.100922,541.999146 57.348343,541.997559 
	C55.848858,541.997498 54.349373,541.974060 52.417244,541.479370 
	C52.043442,532.354797 52.102287,523.712341 52.619194,515.047852 
	C60.857353,515.016296 68.639214,515.106140 76.417007,514.967468 
	C83.164696,514.847229 89.907776,514.468018 96.652893,514.203247 
	C101.747841,513.838135 106.842796,513.473083 112.805176,513.045776 
	C109.878136,506.720123 107.798111,500.889679 104.565331,495.789978 
	C102.895630,493.156036 99.380531,491.368927 96.337715,490.006683 
	C92.128662,488.122314 87.283508,487.561401 83.235275,485.435120 
	C74.358368,480.772583 67.732300,464.409363 70.099945,454.690369 
	C70.998802,451.000671 73.962662,451.689392 76.124512,452.069580 
	C83.760033,453.412323 91.370033,454.984100 98.893280,456.856476 
	C105.630081,458.533112 111.187775,462.125641 116.954567,466.292114 
	C123.330582,470.898743 131.973969,473.408447 139.954025,474.534851 
	C156.102539,476.814362 172.462250,477.647491 188.751511,478.852264 
	C194.183517,479.253998 199.668060,478.890503 205.125397,479.015717 
	C217.558670,479.300903 229.990265,479.663239 242.421707,480.022583 
	C243.576279,480.055939 244.781952,480.114594 245.866623,480.463684 
	C250.763779,482.039795 253.629089,480.164246 255.739075,475.627472 
	C258.229523,470.272675 260.215332,464.371185 266.025391,461.383942 
	C267.298584,460.729370 268.751099,460.113800 270.146027,460.052917 
	C287.324554,459.303284 304.508759,458.684479 321.689178,457.976013 
	C327.644714,457.730469 333.614410,457.533447 339.539093,456.933594 
	C343.836334,456.498535 345.601776,458.369843 346.072510,462.324371 
	C346.639465,467.086975 347.885376,471.836884 347.846466,476.584137 
	C347.808685,481.192657 349.538757,482.103485 353.720276,482.080078 
	C382.532349,481.918762 411.345642,481.979370 440.991455,481.718811 
	C441.865631,470.672272 441.906921,459.875580 441.948212,449.078857 
	C443.001404,430.210144 444.006989,411.373077 451.868774,393.677551 
	C459.196625,377.183868 474.456482,364.132355 494.209839,365.869446 
	C505.186798,366.834747 513.558472,373.622528 520.303650,381.925690 
	C528.672485,392.227478 534.868042,403.721985 536.514526,417.175079 
	C536.916504,420.459442 536.834106,423.803101 536.698120,427.897034 
	C536.322144,445.869263 536.213745,463.063904 536.160645,480.258759 
	C536.158875,480.835480 536.715637,481.413910 537.012024,481.991547 
	C550.376221,481.988464 563.740417,481.985352 578.042053,481.995850 
	C593.304993,481.961517 607.630432,481.913635 622.422363,481.938721 
	C650.887756,481.920715 678.886658,481.829742 707.354980,481.827393 
	C717.199463,481.910492 726.574646,481.905029 736.420105,481.939087 
	C746.548523,481.929901 756.206726,481.881226 766.343872,481.882324 
	C770.957153,481.953888 775.095459,482.100708 779.224548,481.966125 
	C784.447815,481.795807 789.663574,481.396362 794.882568,481.095764 
	C815.515015,481.064056 836.148010,480.947601 856.779541,481.070129 
	C861.060974,481.095520 862.803955,480.082764 863.184509,475.308197 
	C864.416931,459.846436 864.360962,444.177399 868.969727,429.141052 
	C872.890259,416.350189 879.502502,405.978973 893.623962,402.635162 
	C903.050537,400.403046 911.084106,403.700104 917.984314,409.623871 
	C928.527710,418.675354 934.252625,430.345459 935.067627,444.327179 
	C935.259949,447.626190 935.653748,450.913483 935.686523,454.979553 
	C935.278809,460.160004 934.954163,464.571167 935.052612,468.972839 
	C935.149658,473.317383 935.674683,477.652374 936.012024,481.991577 
M753.948242,502.081970 
	C679.747864,502.054962 605.547546,502.023102 531.347168,502.037659 
	C529.920959,502.037964 528.494934,502.587341 526.755859,503.488556 
	C523.891052,506.653656 521.026245,509.818787 517.606750,513.185303 
	C517.915405,513.461487 518.224060,513.737732 518.669983,513.944458 
	C518.669983,513.944458 518.820496,513.975891 519.465393,514.560303 
	C520.779480,514.705872 522.093506,514.978577 523.407593,514.978821 
	C630.396545,514.998718 737.385437,515.001465 844.374390,514.945862 
	C845.568176,514.945251 846.761597,514.165588 847.473267,513.330688 
	C843.276123,509.855682 839.079041,506.380676 834.244934,502.418427 
	C833.597473,502.286804 832.949890,502.039459 832.302551,502.040161 
	C806.490051,502.068054 780.677612,502.118500 753.948242,502.081970 
M296.382050,502.893677 
	C266.234680,502.928711 236.076767,503.425568 205.945953,502.736633 
	C196.020340,502.509705 188.890015,504.414398 185.590775,514.574951 
	C187.404648,514.715820 189.218246,514.974548 191.032440,514.978882 
	C205.195343,515.012695 219.358368,514.997498 233.521347,514.997498 
	C295.005371,514.997498 356.489380,515.007568 417.973328,514.944214 
	C419.633453,514.942505 421.292816,514.148926 422.470184,513.297974 
	C417.626953,509.832520 412.783722,506.367065 407.285858,502.411102 
	C406.146454,502.254486 405.006958,501.960693 403.867615,501.961212 
	C369.642822,501.977417 335.417999,502.015015 301.193298,502.093536 
	C299.914551,502.096466 298.636841,502.542480 296.382050,502.893677 
M472.550842,407.137329 
	C471.295898,409.469116 469.914612,411.742584 468.807190,414.142456 
	C463.141388,426.420441 462.445221,439.369232 464.184723,452.504028 
	C465.237183,460.451355 467.508057,468.083984 472.399963,474.690613 
	C476.485260,480.207825 482.700928,481.709564 487.868134,477.438385 
	C491.167450,474.711273 494.071503,470.996429 495.933167,467.136261 
	C501.267395,456.075531 501.908508,444.031158 500.789581,432.097900 
	C500.005768,423.739288 498.049377,415.447632 492.690826,408.385284 
	C486.198395,399.828613 480.438690,399.175201 472.550842,407.137329 
M881.611633,473.886261 
	C882.650330,476.679657 883.376587,479.645660 884.802002,482.225342 
	C886.859497,485.948669 889.727356,488.932556 894.493774,489.023132 
	C899.319763,489.114868 901.887085,485.942383 903.223083,482.096039 
	C905.115051,476.649109 907.003723,471.023773 907.593750,465.339722 
	C908.730530,454.388763 908.674255,443.413422 902.058044,433.681427 
	C898.151428,427.934967 890.094482,428.108429 886.303589,433.711761 
	C877.927368,446.092499 879.591736,459.574036 881.611633,473.886261 
M511.997925,432.703644 
	C511.763245,441.653442 512.475464,450.760162 511.026093,459.508728 
	C509.591431,468.168488 505.975800,476.466919 503.316803,484.923859 
	C519.507690,467.496613 522.598572,446.940857 517.616211,424.694519 
	C514.789124,412.071289 504.781158,395.009247 494.927124,392.893982 
	C505.868744,404.298615 511.638672,416.927551 511.997925,432.703644 
M919.809265,441.043091 
	C916.924377,434.828583 914.328979,428.396759 907.641541,424.898010 
	C912.660217,435.094391 917.341614,445.551605 916.780151,456.939819 
	C916.244019,467.813354 913.905029,478.598053 912.358521,489.421783 
	C923.291138,474.950623 921.526672,458.386475 919.809265,441.043091 
M130.452896,496.958466 
	C129.955658,496.515320 129.520325,495.815430 128.949448,495.677734 
	C127.318283,495.284363 125.632034,495.119446 123.967461,494.864655 
	C124.080185,496.710114 123.558777,498.976440 124.443581,500.309448 
	C126.062424,502.748413 128.258484,505.001740 130.670044,506.674896 
	C135.302994,509.889160 140.151932,513.035034 147.182159,511.375214 
	C141.278107,506.310577 136.122055,501.887604 130.452896,496.958466 
z"/>
<path fill="#00162F" opacity="1.000000" stroke="none" 
	d="
M130.957886,376.015564 
	C127.554337,376.020660 124.112503,376.357849 120.754150,375.970795 
	C108.952744,374.610657 96.882294,374.131256 85.490738,371.129028 
	C76.386948,368.729706 67.876038,363.577423 59.564949,358.835632 
	C53.099743,355.146973 50.876331,348.181580 51.108337,341.190613 
	C51.685570,323.796753 52.887924,306.422699 53.915073,289.045135 
	C54.530869,278.626923 55.163315,268.206848 56.014252,257.806091 
	C57.162216,243.774841 58.550896,229.763443 59.791157,215.739548 
	C60.564327,206.997147 61.201935,198.242645 61.993591,189.502029 
	C63.232353,175.824890 64.539124,162.153854 65.842209,148.482620 
	C66.155663,145.194138 66.968239,141.890015 66.764969,138.642288 
	C66.663940,137.028046 64.862137,134.243561 63.693401,134.170547 
	C52.146595,133.449097 40.713120,134.000305 30.664831,140.783936 
	C29.481075,141.583099 28.194088,143.380478 28.296381,144.602859 
	C28.394524,145.775665 30.120892,146.966736 31.351934,147.838989 
	C32.259750,148.482208 33.510929,148.663254 34.627907,148.985016 
	C39.870312,150.495163 42.629597,153.325684 42.120899,159.413010 
	C40.796951,175.256012 40.124081,191.152451 38.910397,207.006058 
	C38.381649,213.912750 37.107639,220.759888 36.279964,227.647034 
	C35.700726,232.466934 32.681419,234.563721 28.259274,235.032852 
	C21.791302,235.719025 17.735807,233.977982 16.312590,229.359650 
	C14.853403,224.624588 13.577751,219.732224 13.088490,214.822342 
	C12.332685,207.237610 12.235145,199.581833 12.000849,191.951813 
	C11.603095,178.998734 11.315378,166.042252 10.983082,153.087158 
	C10.622223,139.018509 20.457384,128.732773 31.848061,126.147926 
	C42.618507,123.703827 53.756504,122.920479 64.612373,120.792198 
	C69.168274,119.899033 73.346359,117.224167 77.815079,115.710152 
	C86.732384,112.688950 95.550575,108.936447 104.733795,107.227142 
	C126.022743,103.264557 147.462494,100.032921 168.919754,97.075546 
	C191.201218,94.004570 213.592712,91.740967 235.903458,88.870659 
	C254.763077,86.444344 273.556030,83.499245 292.416626,81.081329 
	C305.205414,79.441818 318.060608,78.320328 330.885315,76.960152 
	C333.842590,76.646507 336.801727,75.988831 339.751465,76.035164 
	C348.012054,76.164902 353.936890,80.452126 357.720947,87.497696 
	C361.374420,94.300186 359.007935,98.211174 351.359009,99.013977 
	C345.590393,99.619423 339.690308,99.809845 334.118958,101.238670 
	C327.600464,102.910408 321.124512,105.211929 315.080200,108.162346 
	C305.496704,112.840370 301.856750,121.667633 302.137024,131.699783 
	C302.725525,152.765182 303.941345,173.813507 304.955933,194.866119 
	C305.107147,198.003571 305.369415,201.161118 305.922333,204.248108 
	C306.875763,209.571350 311.327850,213.560150 316.365753,213.944168 
	C320.886047,214.288727 326.078064,210.708588 327.165558,205.332932 
	C329.129517,195.625061 331.104370,185.829742 331.816711,175.979965 
	C332.810760,162.234421 332.444946,148.395767 333.088623,134.616928 
	C333.330292,129.443405 331.392059,127.461433 326.503906,127.028259 
	C324.036713,126.809608 321.658020,125.592850 319.239288,124.827393 
	C320.652863,122.547119 321.546997,119.405128 323.592041,118.172325 
	C327.429718,115.858810 331.933075,114.649429 337.032959,113.032959 
	C344.601807,113.085060 351.297302,113.085060 358.020996,113.085060 
	C358.020996,116.792694 358.020996,119.912132 358.020996,123.031570 
	C357.683624,139.150803 357.427795,155.272247 356.988708,171.388702 
	C356.405304,192.804886 355.736664,214.219177 354.995789,235.630493 
	C354.416077,252.384018 354.008606,269.154297 352.895416,285.875244 
	C351.951782,300.049927 350.460388,314.212402 348.556396,328.291687 
	C346.860565,340.831573 339.615265,349.382141 327.720673,354.050690 
	C307.932587,361.817383 287.193024,365.675812 266.347595,368.950165 
	C249.492462,371.597778 232.575699,373.986572 215.608765,375.740265 
	C204.762344,376.861359 193.774841,376.617554 182.149506,376.618591 
	C164.618240,376.172882 147.788071,376.094238 130.957886,376.015564 
z"/>
<path fill="#001A37" opacity="1.000000" stroke="none" 
	d="
M379.948364,327.078339 
	C379.954559,317.083710 379.849274,307.087463 379.992004,297.094788 
	C380.231689,280.311798 380.482300,263.526520 381.003357,246.750732 
	C381.482208,231.334137 382.010040,215.906860 383.086456,200.524185 
	C384.380096,182.036240 386.377472,163.598618 387.871368,145.123138 
	C388.662415,135.339523 389.195160,125.354111 394.257141,116.787598 
	C402.082550,103.544502 412.917175,94.459251 429.222382,92.640991 
	C445.756195,90.797218 461.124451,94.141655 476.287842,100.075798 
	C492.638336,106.474503 508.995178,112.870895 525.497131,118.860847 
	C530.927490,120.831993 533.160645,124.043930 533.021851,129.572571 
	C532.617126,145.693710 532.444763,161.821426 531.946167,177.939270 
	C531.443115,194.198227 530.831177,210.457901 529.944885,226.699677 
	C529.160095,241.081543 527.948853,255.440475 526.888672,269.806793 
	C526.632568,273.276794 524.434326,272.883881 521.836548,272.502441 
	C505.746796,270.139832 489.810455,270.224243 474.134613,275.425873 
	C460.284149,280.021759 452.589508,290.636444 447.255310,303.155975 
	C438.684570,323.271759 435.670013,344.733093 432.683502,366.231293 
	C430.695618,380.540833 427.899261,394.786499 424.543152,408.840668 
	C422.283081,418.304932 414.115295,421.321106 405.345795,421.848663 
	C397.229431,422.336853 389.063354,421.999573 380.482941,421.524689 
	C380.013916,389.708466 379.981140,358.393402 379.948364,327.078339 
z"/>
<path fill="#001A37" opacity="1.000000" stroke="none" 
	d="
M631.820435,292.200562 
	C613.697571,288.992126 595.937195,285.905212 578.195068,282.716431 
	C570.227600,281.284393 562.276855,279.739838 554.369934,278.011230 
	C553.121277,277.738251 551.337158,276.330414 551.183716,275.250671 
	C550.509583,270.509216 550.185852,265.700958 550.020508,260.907104 
	C549.287842,239.667358 548.684631,218.423203 547.974121,197.182648 
	C547.358093,178.762802 546.625671,160.346863 546.023438,141.926605 
	C545.865356,137.092209 545.999634,132.248245 545.999634,126.435005 
	C551.648254,128.502853 556.288025,130.146210 560.887878,131.894669 
	C583.373047,140.441559 605.841980,149.031158 628.327393,157.577347 
	C650.188965,165.886444 672.063416,174.161545 693.932556,182.450653 
	C696.668518,183.487640 698.127930,185.100906 698.063965,188.391983 
	C697.601807,212.181488 697.479736,235.978271 696.916748,259.764862 
	C696.638184,271.533844 695.733704,283.291626 694.926025,295.041656 
	C694.747681,297.636658 693.781433,300.177490 693.001465,303.493958 
	C686.608032,302.331818 680.363098,301.212585 674.124451,300.059448 
	C660.144714,297.475403 646.168152,294.874542 631.820435,292.200562 
z"/>
<path fill="#001A37" opacity="1.000000" stroke="none" 
	d="
M711.012329,191.851440 
	C712.805115,191.552094 714.864746,190.522766 716.349548,191.065659 
	C732.240662,196.875961 748.046326,202.920654 763.864807,208.929108 
	C786.508423,217.530045 809.140503,226.161331 831.783875,234.762955 
	C836.591187,236.589066 841.511902,238.151779 846.191650,240.255493 
	C847.475464,240.832581 848.877380,242.936005 848.867065,244.328918 
	C848.750916,259.960480 848.352661,275.589783 848.068848,291.220428 
	C847.984131,295.884949 848.132629,300.555481 847.973572,305.216431 
	C847.735901,312.183838 847.261536,319.142944 847.004272,326.109863 
	C846.862976,329.934998 844.609253,330.397461 841.562866,329.900909 
	C825.199707,327.233734 808.777100,324.884338 792.486084,321.832336 
	C769.369812,317.501709 746.346008,312.675537 723.291321,308.018524 
	C714.414673,306.225403 714.236206,305.679474 713.955750,296.557159 
	C713.435791,279.642731 712.645447,262.736694 711.978455,245.826721 
	C711.638367,237.203644 711.321777,228.579651 711.033508,219.019791 
	C711.052429,209.339478 711.032410,200.595459 711.012329,191.851440 
z"/>
<path fill="#001A37" opacity="1.000000" stroke="none" 
	d="
M979.015625,338.005493 
	C979.015625,343.184967 979.015625,348.364441 979.015625,354.701202 
	C970.792480,353.668976 963.546997,353.121033 956.444336,351.803070 
	C930.546082,346.997406 904.693787,341.943970 878.831055,336.948090 
	C877.046448,336.603394 875.308350,335.998016 873.565979,335.457886 
	C862.231812,331.944244 862.233398,331.939148 861.996765,320.182678 
	C861.993408,320.016174 862.002380,319.849365 861.997375,319.682983 
	C861.332336,297.613312 860.662170,275.543793 860.008728,253.473785 
	C859.950867,251.521057 860.001038,249.565140 860.001038,246.396072 
	C866.869507,248.565567 872.889038,250.166534 878.688477,252.351532 
	C901.968262,261.122314 925.293762,269.791901 948.356384,279.107880 
	C956.714905,282.484283 964.698364,287.084686 972.270569,292.020142 
	C978.491821,296.075012 979.080444,303.425537 979.621887,310.906616 
	C979.193604,320.392578 979.104614,329.199036 979.015625,338.005493 
z"/>
<path fill="#021C39" opacity="1.000000" stroke="none" 
	d="
M689.011475,350.472717 
	C639.619873,344.600525 590.591919,338.749542 541.535156,333.151154 
	C523.790344,331.126129 505.989014,329.556610 488.189209,328.069946 
	C478.578064,327.267242 471.500244,332.752258 464.907135,338.791534 
	C461.166412,342.218048 457.683685,345.926239 454.084747,349.507538 
	C453.538849,349.221985 452.992950,348.936432 452.447021,348.650879 
	C454.042053,343.583435 454.863831,338.080231 457.415710,333.552002 
	C461.118988,326.980743 465.495331,320.575592 470.630005,315.075592 
	C477.841644,307.350800 487.455017,308.847931 496.786804,310.259521 
	C509.988525,312.256622 523.223450,314.034027 536.429932,316.000397 
	C544.749817,317.239197 553.027344,318.766724 561.353088,319.960968 
	C575.893372,322.046539 590.471924,323.868408 605.005493,325.997955 
	C621.004578,328.342163 636.965881,330.942200 652.953064,333.368591 
	C667.797058,335.621429 682.656921,337.770020 697.503479,340.006287 
	C709.418884,341.801056 721.317749,343.706726 733.237000,345.474823 
	C745.974243,347.364258 758.734497,349.098938 771.470642,350.995667 
	C784.033020,352.866516 796.570068,354.907135 809.132446,356.777985 
	C821.212769,358.576996 833.311462,360.253082 845.401794,361.984680 
	C859.774414,364.043121 874.160767,366.010101 888.515137,368.188843 
	C902.703369,370.342377 916.865417,372.672333 931.025940,375.003693 
	C936.533264,375.910431 942.005005,377.032959 947.492981,378.057190 
	C947.516479,378.504242 947.540039,378.951324 947.563538,379.398376 
	C946.005188,379.523865 944.419189,379.903198 942.892517,379.737152 
	C915.280884,376.734344 887.667664,373.742981 860.072815,370.590515 
	C830.139343,367.170868 800.224792,363.586182 770.301514,360.077179 
	C743.322510,356.913422 716.343018,353.754700 689.011475,350.472717 
z"/>
<path fill="#001A37" opacity="1.000000" stroke="none" 
	d="
M277.343445,448.998718 
	C274.434113,448.820679 271.978546,448.642731 269.297241,448.448425 
	C269.297241,446.216217 268.760376,444.072327 269.380646,442.343597 
	C275.313751,425.807159 281.496399,409.360443 287.484741,392.843536 
	C289.468262,387.372528 293.899872,384.692047 298.854187,383.248871 
	C308.221100,380.520264 317.770538,378.411163 327.264709,376.130157 
	C330.763214,375.289642 334.298004,374.253418 337.854523,374.076660 
	C344.354950,373.753693 346.274048,375.378204 346.894989,381.876404 
	C347.824493,391.603912 348.550232,401.364075 348.924377,411.127136 
	C349.214142,418.688599 349.175140,426.299347 348.655640,433.845062 
	C348.112427,441.735596 344.611206,445.085083 336.802734,445.931976 
	C328.918427,446.787109 321.012421,447.583374 313.094757,447.956879 
	C301.338715,448.511414 289.563995,448.671051 277.343445,448.998718 
z"/>
<path fill="#011B38" opacity="1.000000" stroke="none" 
	d="
M99.396439,445.103943 
	C88.796852,443.034851 78.580872,440.935638 68.353081,438.895660 
	C62.639122,437.755981 58.696686,435.197632 58.266609,428.641571 
	C57.337624,414.480103 56.070427,400.341125 55.044865,386.185486 
	C54.796021,382.750671 56.562054,380.848358 60.139549,381.017273 
	C71.763542,381.566040 82.406525,385.454315 91.044167,392.943390 
	C94.563560,395.994781 96.252853,401.732849 97.617958,406.574677 
	C100.577347,417.071320 102.875748,427.759033 105.279602,438.405823 
	C106.821327,445.234192 106.346031,445.679779 99.396439,445.103943 
z"/>
<path fill="#031D39" opacity="1.000000" stroke="none" 
	d="
M324.631989,58.695930 
	C314.757385,60.669308 304.994415,62.451519 295.188934,63.956764 
	C276.175415,66.875542 257.140656,69.656578 238.109772,72.461380 
	C216.291275,75.677040 194.464737,78.838310 172.646713,82.057259 
	C153.780899,84.840652 134.927032,87.705505 116.055519,90.449341 
	C112.809540,90.921288 109.501724,90.967979 106.222466,91.211105 
	C106.093079,90.696022 105.963684,90.180939 105.834290,89.665855 
	C112.001587,87.791862 118.087234,85.566025 124.352036,84.112198 
	C140.799515,80.295380 157.239166,76.339386 173.844803,73.340759 
	C188.955048,70.612183 204.280197,69.075165 219.509079,67.001663 
	C233.593842,65.083961 247.661377,63.029568 261.766052,61.272549 
	C269.798157,60.271996 277.876038,59.486900 285.957306,59.069668 
	C297.225586,58.487900 308.515839,58.320343 319.798065,58.031120 
	C321.436127,57.989132 323.082092,58.255791 324.631989,58.695930 
z"/>
<path fill="#A0ACB6" opacity="1.000000" stroke="none" 
	d="
M104.157349,766.416260 
	C106.671516,766.010986 109.335411,765.999390 111.999313,765.999390 
	C401.200073,765.998535 690.400818,765.998718 979.601562,765.995300 
	C981.766785,765.995300 983.931946,765.946228 986.558960,765.964600 
	C985.555969,766.339417 984.091370,766.958313 982.626465,766.958801 
	C855.981506,767.003235 729.336548,766.994568 602.691589,767.001038 
	C437.220154,767.009399 271.748688,767.027405 106.277252,767.031555 
	C105.620529,767.031555 104.963814,766.890503 104.157349,766.416260 
z"/>
<path fill="#243E55" opacity="1.000000" stroke="none" 
	d="
M1029.353760,723.907776 
	C1029.007446,684.304443 1029.000610,644.421692 1029.015869,604.539001 
	C1029.016235,603.561829 1029.261963,602.584717 1029.680908,601.304199 
	C1029.998535,641.229004 1030.030151,681.457153 1030.043213,721.685364 
	C1030.043457,722.333008 1029.816772,722.980713 1029.353760,723.907776 
z"/>
<path fill="#3F5369" opacity="1.000000" stroke="none" 
	d="
M1039.844971,515.110291 
	C1001.865662,515.072754 963.886292,515.042175 925.906982,514.979187 
	C923.760376,514.975647 921.614075,514.706238 919.143433,514.268250 
	C958.910461,513.992737 999.001587,514.009521 1039.509521,514.310486 
	C1039.899048,514.766602 1039.871948,514.938477 1039.844971,515.110291 
z"/>
<path fill="#627585" opacity="1.000000" stroke="none" 
	d="
M61.606308,604.284546 
	C62.004044,643.737915 62.043201,683.420898 62.035355,723.574097 
	C61.636620,723.048462 60.978123,722.052795 60.977436,721.056763 
	C60.951111,682.865784 60.983883,644.674866 61.020809,606.483887 
	C61.021446,605.827209 61.168831,605.170715 61.606308,604.284546 
z"/>
<path fill="#A5AEB8" opacity="1.000000" stroke="none" 
	d="
M1017.439026,431.718872 
	C1017.018311,396.924896 1016.982544,361.939606 1016.988037,326.487854 
	C1017.371887,326.829865 1018.014587,327.638580 1018.013916,328.446777 
	C1017.986450,362.807068 1017.901672,397.167297 1017.439026,431.718872 
z"/>
<path fill="#BEC7CD" opacity="1.000000" stroke="none" 
	d="
M379.553162,327.255463 
	C379.981140,358.393402 380.013916,389.708466 380.014496,421.486938 
	C379.655945,421.311279 379.044128,420.672211 379.044220,420.033203 
	C379.048889,389.166321 379.106354,358.299469 379.553162,327.255463 
z"/>
<path fill="#909BA8" opacity="1.000000" stroke="none" 
	d="
M706.885620,481.738800 
	C678.886658,481.829742 650.887756,481.920715 622.437439,481.757202 
	C621.986084,481.502777 621.963684,481.139252 621.963684,481.139252 
	C649.972046,481.127533 677.980469,481.115845 706.420532,481.295776 
	C706.852173,481.487396 706.885620,481.738800 706.885620,481.738800 
z"/>
<path fill="#203650" opacity="1.000000" stroke="none" 
	d="
M537.008545,481.523743 
	C536.715637,481.413910 536.158875,480.835480 536.160645,480.258759 
	C536.213745,463.063904 536.322144,445.869263 536.684265,428.359192 
	C536.966187,445.714508 536.985657,463.385193 537.008545,481.523743 
z"/>
<path fill="#627585" opacity="1.000000" stroke="none" 
	d="
M131.169373,376.399292 
	C147.788071,376.094238 164.618240,376.172882 181.686676,376.599060 
	C165.076904,376.892059 148.228882,376.837524 131.169373,376.399292 
z"/>
<path fill="#3F5369" opacity="1.000000" stroke="none" 
	d="
M96.212891,514.194946 
	C89.907776,514.468018 83.164696,514.847229 76.417007,514.967468 
	C68.639214,515.106140 60.857353,515.016296 52.556545,514.805786 
	C51.999752,514.423096 51.963673,514.260315 51.927589,514.097412 
	C66.542686,514.127197 81.157791,514.156982 96.212891,514.194946 
z"/>
<path fill="#BEC7CD" opacity="1.000000" stroke="none" 
	d="
M621.500854,481.077576 
	C621.963684,481.139252 621.986084,481.502777 621.971008,481.684265 
	C607.630432,481.913635 593.304993,481.961517 578.513550,481.984619 
	C579.513000,481.640167 580.976990,481.050751 582.444031,481.042999 
	C595.308350,480.975037 608.173218,481.010864 621.500854,481.077576 
z"/>
<path fill="#5F7082" opacity="1.000000" stroke="none" 
	d="
M534.768921,43.607491 
	C521.183777,43.882183 507.379791,43.785339 493.302887,43.369003 
	C506.870026,43.111660 520.710083,43.173805 534.768921,43.607491 
z"/>
<path fill="#4F6176" opacity="1.000000" stroke="none" 
	d="
M998.109253,288.654541 
	C998.439026,294.381226 998.835327,300.559204 999.031921,306.743561 
	C999.172974,311.180084 999.046814,315.625092 999.011597,320.534790 
	C998.636841,319.489929 997.999573,317.978058 997.991760,316.462952 
	C997.944519,307.345245 998.041626,298.226776 998.109253,288.654541 
z"/>
<path fill="#BEC7CD" opacity="1.000000" stroke="none" 
	d="
M441.552979,449.255859 
	C441.906921,459.875580 441.865631,470.672272 441.466614,481.700012 
	C441.125153,471.098297 441.141449,460.265594 441.552979,449.255859 
z"/>
<path fill="#A0ABB5" opacity="1.000000" stroke="none" 
	d="
M358.429657,122.870750 
	C358.020996,119.912132 358.020996,116.792694 358.020996,113.085060 
	C351.297302,113.085060 344.601807,113.085060 337.437317,113.031990 
	C339.920349,112.654427 342.865784,112.161682 345.825928,112.046074 
	C349.954651,111.884819 354.094391,112.005447 358.838318,112.005447 
	C358.838318,115.617653 358.838318,119.163795 358.429657,122.870750 
z"/>
<path fill="#3F5369" opacity="1.000000" stroke="none" 
	d="
M765.864868,481.832520 
	C756.206726,481.881226 746.548523,481.929901 736.434204,481.744720 
	C735.978088,481.510834 735.965759,481.121033 735.965759,481.121033 
	C745.637573,481.109070 755.309326,481.097076 765.435730,481.303619 
	C765.890320,481.522125 765.864868,481.832520 765.864868,481.832520 
z"/>
<path fill="#5F7082" opacity="1.000000" stroke="none" 
	d="
M735.501160,481.075226 
	C735.965759,481.121033 735.978088,481.510834 735.963989,481.705200 
	C726.574646,481.905029 717.199463,481.910492 707.354980,481.827393 
	C706.885620,481.738800 706.852173,481.487396 706.878784,481.363434 
	C716.282471,481.169464 725.659546,481.099426 735.501160,481.075226 
z"/>
<path fill="#203650" opacity="1.000000" stroke="none" 
	d="
M766.343872,481.882294 
	C765.864868,481.832520 765.890320,481.522125 765.894104,481.366821 
	C775.255249,481.151703 784.612549,481.091888 794.426270,481.063904 
	C789.663574,481.396362 784.447815,481.795807 779.224548,481.966125 
	C775.095459,482.100708 770.957153,481.953888 766.343872,481.882294 
z"/>
<path fill="#808F9C" opacity="1.000000" stroke="none" 
	d="
M1039.908203,515.567871 
	C1039.871948,514.938477 1039.899048,514.766602 1039.979370,514.339355 
	C1040.353149,516.061951 1040.931641,518.037842 1040.948120,520.018372 
	C1041.007935,527.163818 1040.878662,534.310913 1040.461914,541.682556 
	C1040.059082,533.280334 1040.015259,524.652893 1039.908203,515.567871 
z"/>
<path fill="#BEC7CD" opacity="1.000000" stroke="none" 
	d="
M51.525772,514.261963 
	C51.963673,514.260315 51.999752,514.423096 52.098480,514.827881 
	C52.102287,523.712341 52.043442,532.354797 51.942818,541.458130 
	C51.600971,538.582092 51.107975,535.248779 51.043522,531.907227 
	C50.931179,526.083008 51.082912,520.253662 51.525772,514.261963 
z"/>
<path fill="#808F9C" opacity="1.000000" stroke="none" 
	d="
M375.582611,60.229836 
	C376.013977,69.064011 376.058624,78.093735 376.050476,87.594376 
	C375.642853,87.435501 374.978577,86.805046 374.979889,86.176003 
	C374.998077,77.592346 375.108307,69.008896 375.582611,60.229836 
z"/>
<path fill="#627585" opacity="1.000000" stroke="none" 
	d="
M710.594482,192.026596 
	C711.032410,200.595459 711.052429,209.339478 711.029663,218.552521 
	C710.632019,218.192520 709.969299,217.363327 709.969910,216.534592 
	C709.975586,208.423615 710.091858,200.312698 710.594482,192.026596 
z"/>
<path fill="#4F6176" opacity="1.000000" stroke="none" 
	d="
M979.380127,337.774231 
	C979.104614,329.199036 979.193604,320.392578 979.609375,311.322693 
	C979.872192,319.887177 979.808350,328.715088 979.380127,337.774231 
z"/>
<path fill="#203650" opacity="1.000000" stroke="none" 
	d="
M936.008545,481.523743 
	C935.674683,477.652374 935.149658,473.317383 935.052612,468.972839 
	C934.954163,464.571167 935.278809,460.160004 935.662354,455.434540 
	C935.939331,463.762695 935.972229,472.409302 936.008545,481.523743 
z"/>
<path fill="#3F5369" opacity="1.000000" stroke="none" 
	d="
M918.432251,513.764465 
	C918.232971,513.697327 917.933411,513.382080 917.976440,513.024048 
	C918.323303,513.159668 918.327698,513.338013 918.432251,513.764465 
z"/>
<path fill="#010D18" opacity="1.000000" stroke="none" 
	d="
M793.424866,722.244629 
	C792.674988,721.602295 791.925110,720.959961 791.011719,719.545166 
	C790.855164,684.580322 790.862183,650.388000 790.869202,616.195740 
	C792.094543,615.178833 793.319824,614.161926 795.315796,613.027954 
	C807.679626,612.905273 819.272827,612.899536 830.865967,612.893860 
	C839.406311,614.579834 848.261719,615.347900 856.419495,618.148315 
	C871.976746,623.488953 879.670593,635.808594 883.109985,651.402283 
	C886.070496,664.824829 885.508118,677.989624 881.440063,691.040894 
	C876.173523,707.937012 864.004333,717.045227 847.324829,720.917908 
	C844.588806,721.553162 841.771423,721.838196 838.120789,722.367554 
	C822.641602,722.381592 808.033203,722.313110 793.424866,722.244629 
z"/>
<path fill="#01070D" opacity="1.000000" stroke="none" 
	d="
M669.104248,681.893127 
	C669.077820,693.006714 669.070374,704.120483 669.016602,715.233887 
	C668.990601,720.612061 666.938660,722.969116 661.653442,722.943176 
	C657.345886,722.921997 652.553894,724.420471 648.976196,719.413086 
	C648.835693,684.517822 648.832703,650.403259 648.829712,616.288757 
	C650.056885,615.249207 651.283997,614.209717 653.285522,613.052002 
	C668.988831,612.914795 683.917664,612.895874 698.846558,612.876892 
	C711.125244,613.936279 722.675720,616.607056 729.665222,628.169067 
	C739.342346,644.176941 736.523071,667.540588 718.094971,676.889221 
	C714.734497,678.593994 714.475220,680.715698 715.877197,683.778687 
	C720.779541,694.488281 725.568970,705.249756 730.487427,715.951843 
	C732.890320,721.180420 731.929688,723.078064 726.103210,722.973572 
	C710.484070,722.693481 714.127563,725.771301 707.883301,711.761047 
	C703.562439,702.066345 699.431335,692.287048 694.822266,681.869141 
	C690.970337,681.135681 687.507141,680.941528 684.053833,681.054382 
	C679.066833,681.217224 674.087097,681.602661 669.104248,681.893127 
M679.547974,629.077637 
	C685.415222,629.077637 691.282471,629.077637 697.149719,629.077637 
	C697.138184,628.824158 697.126587,628.570679 697.115051,628.317200 
	C687.989197,628.317200 678.863281,628.317200 669.737427,628.317200 
	C669.737183,628.570679 669.736938,628.824158 669.736694,629.077637 
	C672.681152,629.077637 675.625610,629.077637 679.547974,629.077637 
z"/>
<path fill="#000000" opacity="1.000000" stroke="none" 
	d="
M460.881042,617.190735 
	C462.375305,615.821167 463.869568,614.451660 466.173920,613.031372 
	C489.617554,612.954346 512.251099,612.927979 534.884644,612.901611 
	C541.045532,616.422119 541.942505,621.995056 536.509521,627.963928 
	C518.333008,628.084534 500.929474,628.028198 483.526001,628.037109 
	C482.717377,628.037476 481.909088,628.621887 481.065186,629.405090 
	C481.019775,636.340271 480.907043,642.806885 481.040894,649.268311 
	C481.114319,652.814026 481.603455,656.351013 481.905151,659.891968 
	C493.829590,659.932434 505.753998,659.986206 517.678467,660.005798 
	C521.565491,660.012207 524.570251,661.463989 525.546631,665.406311 
	C526.449280,669.050964 526.271362,672.617249 521.728638,674.991333 
	C508.772278,675.030457 496.641266,674.987488 484.510712,675.039673 
	C483.367523,675.044556 482.226929,675.647888 481.055115,676.442261 
	C481.016724,683.367981 480.905792,689.827087 481.040710,696.281006 
	C481.114746,699.822449 481.603424,703.355286 481.905151,706.891968 
	C498.145508,706.929749 514.385864,706.969849 530.626221,707.003601 
	C534.245178,707.011108 537.590088,707.410522 539.126648,711.480286 
	C540.599487,715.381287 540.533936,718.905518 536.416748,722.001221 
	C511.831024,722.133850 488.015656,722.128235 464.200256,722.122681 
	C463.136383,721.206848 462.072510,720.291016 460.964508,718.572998 
	C460.907257,684.244141 460.894135,650.717407 460.881042,617.190735 
z"/>
<path fill="#000000" opacity="1.000000" stroke="none" 
	d="
M900.798828,616.368652 
	C902.025330,615.315613 903.251709,614.262512 905.253479,613.089111 
	C928.666443,612.958740 951.304077,612.948730 973.941650,612.938721 
	C979.502808,615.135620 981.033569,622.237488 976.371094,628.022949 
	C958.058533,628.112366 940.536316,628.045410 923.014038,628.038330 
	C922.372070,628.038086 921.729858,628.623901 921.059448,629.407227 
	C921.020691,636.333984 920.904175,642.792297 921.041809,649.245178 
	C921.117615,652.797729 921.620789,656.341187 921.931274,659.888733 
	C933.403198,659.927429 944.883301,659.743652 956.341125,660.164917 
	C959.121765,660.267151 963.402893,661.710144 964.222473,663.686157 
	C965.656738,667.144348 966.646423,671.817688 961.572083,675.025879 
	C948.355591,675.070740 935.959473,675.016663 923.563599,675.039734 
	C922.739624,675.041260 921.916687,675.629700 921.063538,676.415588 
	C921.022522,683.340393 920.904968,689.796936 921.041931,696.248108 
	C921.117371,699.799683 921.620850,703.342163 921.931274,706.888733 
	C937.929199,706.927246 953.929993,706.821777 969.922363,707.138855 
	C972.752930,707.194946 977.539490,708.501892 977.954773,710.120850 
	C978.879944,713.727539 977.612183,717.896729 976.440918,722.010193 
	C951.594238,722.212097 927.544617,722.240540 903.495056,722.268921 
	C902.704407,721.372131 901.913757,720.475342 901.033813,718.761353 
	C900.895996,684.085632 900.847412,650.227112 900.798828,616.368652 
z"/>
<path fill="#000000" opacity="1.000000" stroke="none" 
	d="
M601.071411,718.917419 
	C599.207214,720.265930 597.368408,722.734619 595.474487,722.777588 
	C584.747009,723.021057 580.737122,725.546936 580.916565,709.804382 
	C581.220337,683.157532 580.978210,656.504395 580.751953,628.992310 
	C570.435364,628.131409 560.332397,628.132141 550.229492,628.132874 
	C545.585938,623.924255 546.108459,616.845337 552.161621,613.039062 
	C578.950745,612.954346 604.917725,612.928040 630.884644,612.901672 
	C636.943176,616.404602 638.053162,622.921692 632.619629,628.022949 
	C622.824219,628.079834 613.852417,628.005737 604.881042,628.043335 
	C603.889099,628.047485 602.899719,628.689270 601.909180,629.035339 
	C601.909180,629.035339 602.033386,629.033264 601.637085,629.170654 
	C601.184326,659.177856 601.127869,689.047607 601.071411,718.917419 
z"/>
<path fill="#000000" opacity="1.000000" stroke="none" 
	d="
M191.884537,612.901733 
	C197.943314,616.404297 199.053391,622.921753 193.619522,628.022949 
	C183.824127,628.079834 174.852341,628.005798 165.881027,628.043274 
	C164.889038,628.047424 163.899719,628.689209 162.909149,629.035278 
	C162.909164,629.035339 163.033340,629.033264 162.637054,629.170654 
	C162.173035,659.208435 162.105301,689.108704 162.037567,719.009033 
	C160.322174,720.320862 158.631210,722.727173 156.887421,722.766052 
	C145.966858,723.009644 141.742233,725.506531 141.915253,710.243713 
	C142.219009,683.450378 141.978226,656.650940 141.751862,628.992310 
	C131.435318,628.131348 121.332451,628.132080 111.229576,628.132812 
	C107.385170,624.470276 108.033264,615.989136 113.181862,613.031311 
	C139.950851,612.954346 165.917694,612.928040 191.884537,612.901733 
z"/>
<path fill="#000000" opacity="1.000000" stroke="none" 
	d="
M427.205597,637.173645 
	C419.149628,646.640686 411.312897,655.825439 403.488373,665.020630 
	C401.365051,667.515991 402.706207,669.666748 404.347046,671.627869 
	C410.201660,678.625305 416.132843,685.558655 422.012543,692.535278 
	C429.068726,700.907898 436.148407,709.261597 443.120483,717.703857 
	C445.654938,720.772827 445.014771,722.565125 441.087250,722.837463 
	C436.282898,723.170654 431.418915,723.119324 426.617889,722.750671 
	C425.064087,722.631409 423.275909,721.283936 422.190735,719.996155 
	C409.730164,705.209778 397.415741,690.300415 384.990326,675.484192 
	C380.965088,670.684509 380.533813,666.036987 384.457153,661.180786 
	C396.143799,646.715088 408.009827,632.394226 419.686371,617.920471 
	C422.646515,614.251160 426.011688,612.308899 430.845337,612.946899 
	C433.301300,613.271057 435.862518,612.780151 438.324951,613.079285 
	C440.121613,613.297546 441.834564,614.204773 443.584839,614.804871 
	C442.843781,616.573303 442.444519,618.610840 441.301331,620.062622 
	C436.804413,625.773560 432.073486,631.300232 427.205597,637.173645 
z"/>
<path fill="#000000" opacity="1.000000" stroke="none" 
	d="
M771.098328,717.884644 
	C770.756470,718.954956 770.723145,720.328247 770.020264,721.044006 
	C766.696472,724.428894 754.291382,723.379883 751.024597,718.755859 
	C750.970337,707.807922 751.018860,697.685059 750.996643,687.562256 
	C750.944580,663.834351 750.858643,640.106506 750.786377,616.378601 
	C756.061401,610.985107 766.872437,611.505249 770.963928,618.166382 
	C771.046143,651.952209 771.072205,684.918457 771.098328,717.884644 
z"/>
<path fill="#000000" opacity="1.000000" stroke="none" 
	d="
M209.798965,616.368713 
	C213.307663,612.652527 223.834030,611.371094 227.621857,614.570618 
	C228.917068,615.664612 229.886505,617.919312 229.893631,619.648315 
	C230.026108,651.881226 229.955597,684.114807 230.033676,716.348083 
	C230.043839,720.539734 227.950470,722.886108 224.181168,722.779480 
	C219.381134,722.643860 213.722107,725.301636 210.036011,718.766785 
	C209.896072,684.085632 209.847519,650.227173 209.798965,616.368713 
z"/>
<path fill="#000000" opacity="1.000000" stroke="none" 
	d="
M358.846619,616.271973 
	C362.469360,612.581665 373.038055,611.393616 376.723389,614.634888 
	C377.999908,615.757568 378.892517,618.027466 378.899475,619.777588 
	C379.027130,651.878723 379.055054,683.980957 378.847198,716.081177 
	C378.834137,718.095947 377.101044,721.385376 375.498688,721.870361 
	C370.012451,723.531311 364.157593,724.806580 359.021545,719.423340 
	C358.880981,684.525330 358.863800,650.398621 358.846619,616.271973 
z"/>
<path fill="#A0ABB5" opacity="1.000000" stroke="none" 
	d="
M358.580750,616.570557 
	C358.863800,650.398621 358.880981,684.525330 358.813995,719.079834 
	C358.484955,718.234863 358.027771,716.962158 358.026245,715.688965 
	C357.987579,683.568787 357.994415,651.448486 358.010834,619.328247 
	C358.011230,618.508484 358.209106,617.688843 358.580750,616.570557 
z"/>
<path fill="#A0ABB5" opacity="1.000000" stroke="none" 
	d="
M648.568115,616.589172 
	C648.832703,650.403259 648.835693,684.517822 648.773743,719.063293 
	C648.471008,718.212280 648.027039,716.930542 648.025513,715.648254 
	C647.987793,683.548523 647.994385,651.448669 648.010254,619.348877 
	C648.010681,618.529053 648.203491,617.709351 648.568115,616.589172 
z"/>
<path fill="#BEC7CD" opacity="1.000000" stroke="none" 
	d="
M790.549805,616.455200 
	C790.862183,650.388000 790.855164,684.580322 790.824585,719.220215 
	C790.532227,718.409424 790.030212,717.151184 790.028625,715.892334 
	C789.988708,683.322998 789.999817,650.753662 790.013367,618.184265 
	C790.013550,617.694397 790.154907,617.204590 790.549805,616.455200 
z"/>
<path fill="#A0ABB5" opacity="1.000000" stroke="none" 
	d="
M209.574188,616.687134 
	C209.847519,650.227173 209.896072,684.085632 209.926971,718.404907 
	C209.604691,717.638916 209.035843,716.412537 209.033997,715.185364 
	C208.986099,683.275879 208.994461,651.366333 209.012650,619.456787 
	C209.013107,618.639648 209.232269,617.822693 209.574188,616.687134 
z"/>
<path fill="#A0ABB5" opacity="1.000000" stroke="none" 
	d="
M900.574219,616.687134 
	C900.847412,650.227112 900.895996,684.085632 900.927002,718.404785 
	C900.604797,717.638855 900.035950,716.412476 900.034119,715.185364 
	C899.986206,683.275879 899.994629,651.366272 900.012756,619.456726 
	C900.013245,618.639587 900.232361,617.822632 900.574219,616.687134 
z"/>
<path fill="#808F9C" opacity="1.000000" stroke="none" 
	d="
M750.558594,616.692627 
	C750.858643,640.106506 750.944580,663.834351 750.996643,687.562256 
	C751.018860,697.685059 750.970337,707.807922 750.925537,718.389404 
	C750.596130,717.616333 750.034058,716.384949 750.032227,715.152771 
	C749.984924,683.254578 749.993530,651.356384 750.010864,619.458130 
	C750.011292,618.640930 750.219421,617.823792 750.558594,616.692627 
z"/>
<path fill="#627585" opacity="1.000000" stroke="none" 
	d="
M460.618164,617.494934 
	C460.894135,650.717407 460.907257,684.244141 460.860840,718.209229 
	C460.534119,717.387085 460.035278,716.126770 460.033600,714.865845 
	C459.991516,683.324524 459.999176,651.783142 460.017609,620.241760 
	C460.018066,619.427490 460.237823,618.613342 460.618164,617.494934 
z"/>
<path fill="#223D54" opacity="1.000000" stroke="none" 
	d="
M771.342468,717.564880 
	C771.072205,684.918457 771.046143,651.952209 771.041870,618.523560 
	C771.375732,619.316833 771.958374,620.572205 771.960388,621.828491 
	C772.009705,652.819641 772.000610,683.810852 771.979126,714.802063 
	C771.978577,715.616455 771.723145,716.430786 771.342468,717.564880 
z"/>
<path fill="#BEC7CD" opacity="1.000000" stroke="none" 
	d="
M162.396057,718.770142 
	C162.105301,689.108704 162.173035,659.208435 162.638062,629.108643 
	C163.025177,656.965332 163.019608,685.021606 162.994171,713.077820 
	C162.992523,714.895691 162.837982,716.713379 162.396057,718.770142 
z"/>
<path fill="#BEC7CD" opacity="1.000000" stroke="none" 
	d="
M601.403625,718.658813 
	C601.127869,689.047607 601.184326,659.177856 601.638062,629.108582 
	C602.025146,656.926208 602.019836,684.943237 601.993225,712.960327 
	C601.991516,714.773682 601.825500,716.586975 601.403625,718.658813 
z"/>
<path fill="#223D54" opacity="1.000000" stroke="none" 
	d="
M630.564880,612.657471 
	C604.917725,612.928040 578.950745,612.954346 552.521118,612.959717 
	C553.313843,612.625854 554.568726,612.042786 555.824890,612.039978 
	C579.817200,611.987061 603.809692,611.998474 627.802124,612.020935 
	C628.616577,612.021729 629.430786,612.276794 630.564880,612.657471 
z"/>
<path fill="#223D54" opacity="1.000000" stroke="none" 
	d="
M191.564835,612.657471 
	C165.917694,612.928040 139.950851,612.954346 113.521217,612.959717 
	C114.313904,612.625793 115.568802,612.042786 116.824982,612.039978 
	C140.817276,611.987061 164.809708,611.998474 188.802109,612.020935 
	C189.616562,612.021729 190.430786,612.276794 191.564835,612.657471 
z"/>
<path fill="#A0ABB5" opacity="1.000000" stroke="none" 
	d="
M903.817261,722.470581 
	C927.544617,722.240540 951.594238,722.212097 976.077759,722.229675 
	C975.230652,722.518188 973.949951,722.969788 972.668396,722.972107 
	C950.474976,723.012512 928.281433,723.000488 906.087952,722.981506 
	C905.438416,722.980957 904.789001,722.779785 903.817261,722.470581 
z"/>
<path fill="#A0ABB5" opacity="1.000000" stroke="none" 
	d="
M464.478271,722.421997 
	C488.015656,722.128235 511.831024,722.133850 536.077271,722.206421 
	C535.891968,722.499512 535.275452,722.924194 534.659790,722.923035 
	C511.358582,722.880188 488.057434,722.798035 464.478271,722.421997 
z"/>
<path fill="#223D54" opacity="1.000000" stroke="none" 
	d="
M973.618652,612.688904 
	C951.304077,612.948730 928.666443,612.958740 905.572144,612.935242 
	C906.374207,612.600952 907.632324,612.041260 908.891968,612.038025 
	C929.547363,611.985474 950.203003,611.998230 970.858582,612.023438 
	C971.671143,612.024414 972.483337,612.294434 973.618652,612.688904 
z"/>
<path fill="#223D54" opacity="1.000000" stroke="none" 
	d="
M534.564880,612.657471 
	C512.251099,612.927979 489.617554,612.954346 466.521179,612.959717 
	C467.313812,612.625793 468.568512,612.043518 469.824799,612.040161 
	C490.483826,611.984924 511.143066,611.997803 531.802246,612.020996 
	C532.616638,612.021912 533.430847,612.276794 534.564880,612.657471 
z"/>
<path fill="#BEC7CD" opacity="1.000000" stroke="none" 
	d="
M921.087708,628.936523 
	C921.729858,628.623901 922.372070,628.038086 923.014038,628.038330 
	C940.536316,628.045410 958.058533,628.112366 976.004761,628.248169 
	C974.316406,628.553223 972.204895,628.967224 970.091797,628.975769 
	C954.381409,629.039124 938.670654,629.022034 922.263000,629.038330 
	C921.565979,629.046448 921.087708,628.936523 921.087708,628.936523 
z"/>
<path fill="#BEC7CD" opacity="1.000000" stroke="none" 
	d="
M481.100677,628.934326 
	C481.909088,628.621887 482.717377,628.037476 483.526001,628.037109 
	C500.929474,628.028198 518.333008,628.084534 536.178467,628.171082 
	C534.690247,628.477783 532.761047,628.962524 530.829712,628.970886 
	C514.885376,629.039917 498.940643,629.020569 482.293610,629.034180 
	C481.427704,629.005005 481.264191,628.969727 481.100677,628.934326 
z"/>
<path fill="#223D54" opacity="1.000000" stroke="none" 
	d="
M698.529297,612.636475 
	C683.917664,612.895874 668.988831,612.914795 653.606689,612.905334 
	C653.747192,612.611206 654.342041,612.111572 654.934753,612.114075 
	C669.360657,612.175659 683.786316,612.290649 698.529297,612.636475 
z"/>
<path fill="#A0ABB5" opacity="1.000000" stroke="none" 
	d="
M793.744873,722.459778 
	C808.033203,722.313110 822.641602,722.381592 837.649780,722.483093 
	C823.388000,722.569031 808.726501,722.622009 793.744873,722.459778 
z"/>
<path fill="#808F9C" opacity="1.000000" stroke="none" 
	d="
M921.093262,675.945190 
	C921.916687,675.629700 922.739624,675.041260 923.563599,675.039734 
	C935.959473,675.016663 948.355591,675.070740 961.192383,675.156250 
	C958.542786,675.472778 955.454590,675.935059 952.361511,675.970398 
	C942.569153,676.082214 932.774902,676.034363 922.279419,676.054016 
	C921.577393,676.059753 921.093262,675.945190 921.093262,675.945190 
z"/>
<path fill="#808F9C" opacity="1.000000" stroke="none" 
	d="
M481.085114,675.973450 
	C482.226929,675.647888 483.367523,675.044556 484.510712,675.039673 
	C496.641266,674.987488 508.772278,675.030457 521.358765,675.083618 
	C520.096741,675.415588 518.380981,675.953613 516.661072,675.967224 
	C505.455017,676.055908 494.248077,676.030884 482.322571,676.060547 
	C481.430847,676.043213 481.257996,676.008301 481.085114,675.973450 
z"/>
<path fill="#223D54" opacity="1.000000" stroke="none" 
	d="
M830.548950,612.650269 
	C819.272827,612.899536 807.679626,612.905273 795.636475,612.886353 
	C798.431641,612.573730 801.676819,612.045471 804.922058,612.044373 
	C813.358643,612.041626 821.795288,612.270325 830.548950,612.650269 
z"/>
<path fill="#223D54" opacity="1.000000" stroke="none" 
	d="
M921.059448,629.407227 
	C921.087708,628.936523 921.565979,629.046448 921.802124,629.113037 
	C922.017273,639.110596 921.996277,649.041504 921.953247,659.430542 
	C921.620789,656.341187 921.117615,652.797729 921.041809,649.245178 
	C920.904175,642.792297 921.020691,636.333984 921.059448,629.407227 
z"/>
<path fill="#42586C" opacity="1.000000" stroke="none" 
	d="
M481.055115,676.442261 
	C481.257996,676.008301 481.430847,676.043213 481.865112,676.118469 
	C482.073181,686.096985 482.019775,696.035034 481.935760,706.432556 
	C481.603424,703.355286 481.114746,699.822449 481.040710,696.281006 
	C480.905792,689.827087 481.016724,683.367981 481.055115,676.442261 
z"/>
<path fill="#42586C" opacity="1.000000" stroke="none" 
	d="
M481.065186,629.405151 
	C481.264191,628.969727 481.427704,629.005005 481.834290,629.102539 
	C482.040375,639.100830 482.003357,649.036987 481.935791,659.432556 
	C481.603455,656.351013 481.114319,652.814026 481.040894,649.268311 
	C480.907043,642.806885 481.019775,636.340271 481.065186,629.405151 
z"/>
<path fill="#BEC7CD" opacity="1.000000" stroke="none" 
	d="
M602.383423,629.022522 
	C602.899719,628.689270 603.889099,628.047485 604.881042,628.043335 
	C613.852417,628.005737 622.824219,628.079834 632.244019,628.148560 
	C627.181213,628.452515 621.672852,628.813538 616.158508,628.979065 
	C611.728638,629.112061 607.291565,629.008362 602.383423,629.022522 
z"/>
<path fill="#BEC7CD" opacity="1.000000" stroke="none" 
	d="
M550.516235,628.418518 
	C560.332397,628.132141 570.435364,628.131409 580.728699,628.518250 
	C570.880432,628.838623 560.841675,628.771362 550.516235,628.418518 
z"/>
<path fill="#BEC7CD" opacity="1.000000" stroke="none" 
	d="
M163.383453,629.022522 
	C163.899719,628.689209 164.889038,628.047424 165.881027,628.043274 
	C174.852341,628.005798 183.824127,628.079834 193.243927,628.148499 
	C188.181168,628.452454 182.672775,628.813416 177.158524,628.979004 
	C172.728622,629.112061 168.291626,629.008423 163.383453,629.022522 
z"/>
<path fill="#BEC7CD" opacity="1.000000" stroke="none" 
	d="
M111.516273,628.418457 
	C121.332451,628.132080 131.435318,628.131348 141.728622,628.518311 
	C131.880356,628.838684 121.841667,628.771423 111.516273,628.418457 
z"/>
<path fill="#223D54" opacity="1.000000" stroke="none" 
	d="
M921.063538,676.415649 
	C921.093262,675.945190 921.577393,676.059753 921.818726,676.120117 
	C922.031860,686.111084 922.003601,696.041748 921.953308,706.430542 
	C921.620850,703.342163 921.117371,699.799683 921.041931,696.248108 
	C920.904968,689.796936 921.022522,683.340393 921.063538,676.415649 
z"/>
<path fill="#808F9C" opacity="1.000000" stroke="none" 
	d="
M669.563721,681.936157 
	C674.087097,681.602661 679.066833,681.217224 684.053833,681.054382 
	C687.507141,680.941528 690.970337,681.135681 694.661865,681.543823 
	C686.604126,681.922974 678.313599,681.951050 669.563721,681.936157 
z"/>
<path fill="#000000" opacity="1.000000" stroke="none" 
	d="
M834.881958,502.905640 
	C839.079041,506.380676 843.276123,509.855682 847.254333,513.629395 
	C737.630432,513.944031 628.225464,513.959961 518.820496,513.975891 
	C518.820496,513.975891 518.669983,513.944458 518.470459,513.735107 
	C518.234436,513.345215 518.197937,513.164551 518.161438,512.983887 
	C521.026245,509.818787 523.891052,506.653656 527.373535,503.217529 
	C602.631531,502.963104 677.271790,502.980530 751.912109,502.987701 
	C752.908142,502.987793 753.904114,502.858154 755.372925,502.855408 
	C782.191162,502.916382 808.536560,502.911011 834.881958,502.905640 
z"/>
<path fill="#000000" opacity="1.000000" stroke="none" 
	d="
M407.940491,502.901611 
	C412.783722,506.367065 417.626953,509.832520 422.252960,513.608887 
	C343.025879,513.937988 264.016022,513.956116 185.006165,513.974304 
	C188.890015,504.414398 196.020340,502.509705 205.945953,502.736633 
	C236.076767,503.425568 266.234680,502.928711 297.301819,502.881897 
	C334.794556,502.880585 371.367523,502.891083 407.940491,502.901611 
z"/>
<path fill="#000810" opacity="1.000000" stroke="none" 
	d="
M472.786865,406.857971 
	C480.438690,399.175201 486.198395,399.828613 492.690826,408.385284 
	C498.049377,415.447632 500.005768,423.739288 500.789581,432.097900 
	C501.908508,444.031158 501.267395,456.075531 495.933167,467.136261 
	C494.071503,470.996429 491.167450,474.711273 487.868134,477.438385 
	C482.700928,481.709564 476.485260,480.207825 472.399963,474.690613 
	C467.508057,468.083984 465.237183,460.451355 464.184723,452.504028 
	C462.445221,439.369232 463.141388,426.420441 468.807190,414.142456 
	C469.914612,411.742584 471.295898,409.469116 472.786865,406.857971 
z"/>
<path fill="#010810" opacity="1.000000" stroke="none" 
	d="
M881.496094,473.513123 
	C879.591736,459.574036 877.927368,446.092499 886.303589,433.711761 
	C890.094482,428.108429 898.151428,427.934967 902.058044,433.681427 
	C908.674255,443.413422 908.730530,454.388763 907.593750,465.339722 
	C907.003723,471.023773 905.115051,476.649109 903.223083,482.096039 
	C901.887085,485.942383 899.319763,489.114868 894.493774,489.023132 
	C889.727356,488.932556 886.859497,485.948669 884.802002,482.225342 
	C883.376587,479.645660 882.650330,476.679657 881.496094,473.513123 
z"/>
<path fill="#000000" opacity="1.000000" stroke="none" 
	d="
M511.995819,432.229370 
	C511.638672,416.927551 505.868744,404.298615 494.927124,392.893982 
	C504.781158,395.009247 514.789124,412.071289 517.616211,424.694519 
	C522.598572,446.940857 519.507690,467.496613 503.316803,484.923859 
	C505.975800,476.466919 509.591431,468.168488 511.026093,459.508728 
	C512.475464,450.760162 511.763245,441.653442 511.995819,432.229370 
z"/>
<path fill="#3F5369" opacity="1.000000" stroke="none" 
	d="
M519.142944,514.268066 
	C628.225464,513.959961 737.630432,513.944031 847.495300,513.838867 
	C846.761597,514.165588 845.568176,514.945251 844.374390,514.945862 
	C737.385437,515.001465 630.396545,514.998718 523.407593,514.978821 
	C522.093506,514.978577 520.779480,514.705872 519.142944,514.268066 
z"/>
<path fill="#000000" opacity="1.000000" stroke="none" 
	d="
M919.877930,441.447815 
	C921.526672,458.386475 923.291138,474.950623 912.358521,489.421783 
	C913.905029,478.598053 916.244019,467.813354 916.780151,456.939819 
	C917.341614,445.551605 912.660217,435.094391 907.641541,424.898010 
	C914.328979,428.396759 916.924377,434.828583 919.877930,441.447815 
z"/>
<path fill="#3F5369" opacity="1.000000" stroke="none" 
	d="
M185.298462,514.274658 
	C264.016022,513.956116 343.025879,513.937988 422.494141,513.822205 
	C421.292816,514.148926 419.633453,514.942505 417.973328,514.944214 
	C356.489380,515.007568 295.005371,514.997498 233.521347,514.997498 
	C219.358368,514.997498 205.195343,515.012695 191.032440,514.978882 
	C189.218246,514.974548 187.404648,514.715820 185.298462,514.274658 
z"/>
<path fill="#3F5369" opacity="1.000000" stroke="none" 
	d="
M754.900146,502.789093 
	C753.904114,502.858154 752.908142,502.987793 751.912109,502.987701 
	C677.271790,502.980530 602.631531,502.963104 527.530029,502.913544 
	C528.494934,502.587341 529.920959,502.037964 531.347168,502.037659 
	C605.547546,502.023102 679.747864,502.054962 754.420044,502.278992 
	C754.891846,502.475983 754.900146,502.789093 754.900146,502.789093 
z"/>
<path fill="#000000" opacity="1.000000" stroke="none" 
	d="
M130.709442,497.211548 
	C136.122055,501.887604 141.278107,506.310577 147.182159,511.375214 
	C140.151932,513.035034 135.302994,509.889160 130.670044,506.674896 
	C128.258484,505.001740 126.062424,502.748413 124.443581,500.309448 
	C123.558777,498.976440 124.080185,496.710114 123.967461,494.864655 
	C125.632034,495.119446 127.318283,495.284363 128.949448,495.677734 
	C129.520325,495.815430 129.955658,496.515320 130.709442,497.211548 
z"/>
<path fill="#2F435C" opacity="1.000000" stroke="none" 
	d="
M407.613159,502.656372 
	C371.367523,502.891083 334.794556,502.880585 297.790100,502.826050 
	C298.636841,502.542480 299.914551,502.096466 301.193298,502.093536 
	C335.417999,502.015015 369.642822,501.977417 403.867615,501.961212 
	C405.006958,501.960693 406.146454,502.254486 407.613159,502.656372 
z"/>
<path fill="#203650" opacity="1.000000" stroke="none" 
	d="
M755.372925,502.855408 
	C754.900146,502.789093 754.891846,502.475983 754.878479,502.320984 
	C780.677612,502.118500 806.490051,502.068054 832.302551,502.040161 
	C832.949890,502.039459 833.597473,502.286804 834.563477,502.662048 
	C808.536560,502.911011 782.191162,502.916382 755.372925,502.855408 
z"/>
<path fill="#3F5369" opacity="1.000000" stroke="none" 
	d="
M517.884094,513.084595 
	C518.197937,513.164551 518.234436,513.345215 518.401855,513.769897 
	C518.224060,513.737732 517.915405,513.461487 517.884094,513.084595 
z"/>
<path fill="#BEC7CD" opacity="1.000000" stroke="none" 
	d="
M679.059021,629.077637 
	C675.625610,629.077637 672.681152,629.077637 669.736694,629.077637 
	C669.736938,628.824158 669.737183,628.570679 669.737427,628.317200 
	C678.863281,628.317200 687.989197,628.317200 697.115051,628.317200 
	C697.126587,628.570679 697.138184,628.824158 697.149719,629.077637 
	C691.282471,629.077637 685.415222,629.077637 679.059021,629.077637 
z"/>
</svg>